<?xml version="1.0" encoding="UTF-8"?> <svg xmlns="http://www.w3.org/2000/svg" width="674" height="124" viewBox="0 0 674 124" fill="none"><path d="M93.8448 37.1698H93.2565V37.7581V65.105V65.6932H93.8448C116.708 65.6932 128.171 58.7912 139.554 51.9354L139.559 51.9324C150.878 45.1158 162.118 38.3463 184.657 38.3463H185.245V37.7581V10.4111V9.82289H184.657C161.794 9.82289 150.331 16.7249 138.947 23.5807L138.942 23.5837C127.624 30.4003 116.384 37.1698 93.8448 37.1698Z" fill="#2047F4" stroke="#2047F4" stroke-width="1.17648"></path><path d="M93.8448 90.8309H93.2565V91.4192V118.766V119.354H93.8448C116.708 119.354 128.171 112.452 139.554 105.597L139.559 105.594C150.878 98.7769 162.118 92.0074 184.657 92.0074H185.245V91.4192V64.0723V63.484H184.657C161.794 63.484 150.331 70.386 138.947 77.2418L138.942 77.2448C127.624 84.0615 116.384 90.8309 93.8448 90.8309Z" fill="#2047F4" stroke="#2047F4" stroke-width="1.17648"></path><path d="M2.00003 37.1718H1.41179V37.76V65.1069V65.6952H2.00003C25.1195 65.6952 36.7108 58.7946 48.2232 51.9389L48.2285 51.9357C59.6754 45.119 71.0452 38.3482 93.8444 38.3482H94.4326V37.76V10.4131V9.82485H93.8444C70.7249 9.82485 59.1337 16.7254 47.6212 23.5811L47.616 23.5843C36.1691 30.401 24.7992 37.1718 2.00003 37.1718Z" fill="#2047F4" stroke="#2047F4" stroke-width="1.17648"></path><path d="M2 90.8309H1.41176V91.4192V118.766V119.354H2C25.1195 119.354 36.7107 112.454 48.2232 105.598L48.2285 105.595C59.6753 98.7782 71.0452 92.0074 93.8444 92.0074H94.4326V91.4192V64.0723V63.484H93.8444C70.7249 63.484 59.1336 70.3846 47.6212 77.2403L47.6159 77.2435C36.169 84.0602 24.7992 90.8309 2 90.8309Z" fill="#2047F4" stroke="#2047F4" stroke-width="1.17648"></path><path d="M314.789 83.3381L314.801 83.1503H314.613H289.915H289.757L289.74 83.3084C289.084 89.58 286.557 94.2931 282.849 97.4392C279.14 100.587 274.233 102.178 268.8 102.178C261.207 102.178 255.228 99.6503 251.144 94.6829C247.056 89.7101 244.845 82.2675 244.845 72.4001V70.893C244.845 61.5009 247.195 54.1979 251.285 49.2462C255.373 44.2984 261.212 41.6805 268.235 41.6805C273.769 41.6805 278.25 42.9927 281.579 45.7146C284.907 48.4357 287.107 52.5837 288.045 58.2993L288.069 58.4472H288.219H314.047H314.24L314.223 58.2555C312.993 44.0797 307.079 34.4698 298.596 28.4086C290.12 22.3517 279.098 19.851 267.669 19.851C253.583 19.851 240.812 24.7165 231.562 33.5819C222.31 42.4486 216.59 55.3065 216.59 71.2697V72.7769C216.59 88.9262 222.073 101.503 231.186 110.042C240.298 118.579 253.022 123.065 267.481 123.065C281.842 123.065 293.292 119.005 301.343 112.001C309.395 104.996 314.032 95.0597 314.789 83.3381ZM488.242 61.6737H477.295C462.201 61.6737 449.346 63.8409 440.258 68.902C431.155 73.9707 425.839 81.9403 425.839 93.4998C425.839 103.909 429.629 111.31 435.686 116.104C441.736 120.893 450.027 123.065 459.008 123.065C466.761 123.065 472.822 121.553 477.659 119.042C482.316 116.624 485.828 113.284 488.619 109.492V120.816V120.993H488.795H515.378H515.554V120.816V56.5753C515.554 43.1591 511.25 33.9653 503.893 28.1313C496.543 22.3033 486.175 19.851 474.09 19.851C462.002 19.851 451.31 22.4458 443.423 27.9838C435.53 33.5264 430.462 42.0066 429.61 53.7366L429.596 53.9259H429.786H455.614H455.769L455.789 53.7727C456.351 49.5612 457.846 46.1204 460.516 43.7313C463.184 41.3428 467.05 39.985 472.393 39.985C478.586 39.985 482.53 41.5783 484.934 44.5814C487.346 47.5941 488.242 52.0638 488.242 57.894V61.6737ZM580.291 50.579L580.318 50.7232H580.465H605.539H605.736L605.714 50.5277C604.484 39.1798 599.748 31.5 592.558 26.6631C585.377 21.8316 575.769 19.851 564.817 19.851C554.704 19.851 544.909 22.4005 537.638 27.5367C530.36 32.6769 525.615 40.4056 525.615 50.7351C525.615 60.3772 528.171 67.1235 534.046 71.9477C539.906 76.7604 549.043 79.6385 562.151 81.6173L562.152 81.6174C569.221 82.6535 574.188 83.8748 577.385 85.6706C578.981 86.5666 580.128 87.6014 580.877 88.8206C581.626 90.039 581.985 91.4539 581.985 93.123C581.985 96.4662 580.78 99.0936 578.288 100.892C575.786 102.698 571.964 103.685 566.702 103.685C560.786 103.685 556.782 102.418 554.117 100.079C551.452 97.7401 550.096 94.3038 549.533 89.898L549.513 89.7439H549.358H523.906H523.722L523.73 89.9282C524.203 100.617 528.324 108.911 535.676 114.528C543.023 120.14 553.577 123.065 566.891 123.065C579.921 123.065 590.333 120.282 597.492 114.81C604.659 109.333 608.543 101.177 608.543 90.4856C608.543 79.8908 605.131 73.0026 598.596 68.3239C592.077 63.6578 582.471 61.2048 570.121 59.4149C562.956 58.3785 558.225 57.2512 555.288 55.6203C553.823 54.8074 552.813 53.8738 552.167 52.7712C551.521 51.6687 551.231 50.3828 551.231 48.8512C551.231 45.8922 552.478 43.4013 554.813 41.645C557.154 39.8851 560.6 38.8546 565.005 38.8546C569.698 38.8546 573.141 39.7927 575.596 41.7136C578.049 43.6329 579.542 46.5543 580.291 50.579ZM673.299 120.229L673.417 120.188V120.063V98.9632V98.6997L673.173 98.7999C669.993 100.109 667 100.671 662.872 100.671C659.414 100.671 656.734 99.7374 654.915 97.8516C653.096 95.9647 652.113 93.0958 652.113 89.1668V41.8689H672.675H672.852V41.6924V22.2882V22.1117H672.675H652.113V1V0.823528H651.937H624.789H624.612V1V22.1117H612.157H611.981V22.2882V41.6924V41.8689H612.157H624.612V91.6159C624.612 101.914 627.402 109.738 632.82 114.985C638.237 120.232 646.253 122.877 656.65 122.877C664.025 122.877 669.512 121.554 673.299 120.229ZM370.023 101.989C362.341 101.989 356.361 99.1831 352.298 94.0497C348.231 88.9104 346.068 81.4186 346.068 72.0233V70.5162C346.068 61.1225 348.324 53.7254 352.438 48.6802C356.548 43.6397 362.528 40.9269 370.023 40.9269C377.611 40.9269 383.59 43.7328 387.677 48.867C391.769 54.0065 393.978 61.4984 393.978 70.893V72.2117C393.978 81.5116 391.769 88.9564 387.678 94.0725C383.591 99.1834 377.611 101.989 370.023 101.989ZM369.834 123.065C384.673 123.065 397.727 118.106 407.072 109.241C416.419 100.374 422.045 87.61 422.045 72.0233V70.5162C422.045 55.1177 416.466 42.4479 407.167 33.6284C397.869 24.8099 384.862 19.851 370.023 19.851C355.183 19.851 342.129 24.9046 332.785 33.8408C323.439 42.7779 317.813 55.5886 317.813 71.0813V72.5885C317.813 87.9875 323.439 100.61 332.762 109.383C342.084 118.154 355.09 123.065 369.834 123.065ZM467.114 103.685C462.143 103.685 458.61 102.513 456.321 100.48C454.035 98.4492 452.963 95.5358 452.963 91.9927C452.963 89.3816 453.534 87.2251 454.627 85.4565C455.72 83.6878 457.343 82.2951 459.464 81.2236C463.714 79.0767 469.948 78.2283 477.86 78.2283H488.242V86.341C488.242 91.7493 485.958 96.0787 482.182 99.0602C478.402 102.045 473.117 103.685 467.114 103.685Z" fill="black" stroke="black" stroke-width="0.352944"></path></svg> 