<svg width="24" height="24" viewBox="0 0 17 17" fill="none" xmlns="http://www.w3.org/2000/svg"><g clip-path="url(#clip0)"><path d="M16.2926 0.467285H1.66332C1.26252 0.467285 0.961914 0.767887 0.961914 1.16869V15.8982C0.961914 16.1988 1.26252 16.4994 1.66332 16.4994H16.3928C16.7936 16.4994 17.0942 16.1988 17.0942 15.798V1.16869C16.994 0.767887 16.6934 0.467285 16.2926 0.467285ZM5.67134 14.0946H3.36673V6.47932H5.77154V14.0946H5.67134ZM4.56913 5.47731C3.76753 5.47731 3.16633 4.77591 3.16633 4.0745C3.16633 3.2729 3.76753 2.6717 4.56913 2.6717C5.37074 2.6717 5.97194 3.2729 5.97194 4.0745C5.87174 4.77591 5.27054 5.47731 4.56913 5.47731ZM14.5892 14.0946H12.1844V10.3871C12.1844 9.48533 12.1844 8.38313 10.982 8.38313C9.77956 8.38313 9.57916 9.38513 9.57916 10.3871V14.1948H7.17435V6.47932H9.47896V7.48132C9.77956 6.88012 10.5812 6.27892 11.6834 6.27892C14.0882 6.27892 14.489 7.88212 14.489 9.88614V14.0946H14.5892Z" fill="#232722"></path></g><defs><clipPath id="clip0"><rect width="16.0321" height="16.0321" fill="white" transform="translate(0.961914 0.467285)"></rect></clipPath></defs></svg>