<svg width="24" height="24" viewBox="0 0 19 19" fill="none" xmlns="http://www.w3.org/2000/svg"><g clip-path="url(#clip0)"><path d="M18.9616 3.83905C18.275 4.18235 17.5884 4.29678 16.7874 4.41121C17.5884 3.95348 18.1606 3.26689 18.3894 2.35142C17.7028 2.80916 16.9018 3.03802 15.9863 3.26689C15.2997 2.58029 14.2698 2.12256 13.2399 2.12256C11.2946 2.12256 9.5781 3.83905 9.5781 5.89884C9.5781 6.24214 9.5781 6.471 9.69253 6.69987C6.60285 6.58544 3.74203 5.09781 1.9111 2.80916C1.56781 3.38132 1.45337 3.95348 1.45337 4.75451C1.45337 6.01327 2.13997 7.1576 3.16986 7.8442C2.5977 7.8442 2.02554 7.61533 1.45337 7.38647C1.45337 9.21739 2.71213 10.705 4.42862 11.0483C4.08533 11.1627 3.74203 11.1627 3.39873 11.1627C3.16986 11.1627 2.941 11.1627 2.71213 11.0483C3.16986 12.5359 4.54306 13.6803 6.25955 13.6803C5.00079 14.7102 3.39873 15.2823 1.56781 15.2823C1.22451 15.2823 0.995642 15.2823 0.652344 15.2823C2.36884 16.3122 4.31419 16.9988 6.37398 16.9988C13.2399 16.9988 17.0162 11.2772 17.0162 6.35657C17.0162 6.24214 17.0162 6.01327 17.0162 5.89884C17.8173 5.32668 18.5039 4.64008 18.9616 3.83905Z" fill="#232722"></path></g><defs><clipPath id="clip0"><rect width="18.3092" height="18.3092" fill="white" transform="translate(0.652344 0.406006)"></rect></clipPath></defs></svg>