<?xml version="1.0" encoding="UTF-8"?> <svg xmlns="http://www.w3.org/2000/svg" width="36" height="36" viewBox="0 0 36 36" fill="none"><circle cx="17.6482" cy="18.1128" r="17.5617" fill="#FFD392"></circle><path d="M5.62256 22.6764C8.37893 24.2437 11.1486 25.8111 13.9049 27.3784C14.1302 27.508 14.3687 27.6375 14.6338 27.6764C14.8458 27.7023 15.0711 27.6634 15.2831 27.6116C16.6613 27.2748 17.8805 26.394 18.6093 25.2023C19.0599 24.4639 19.3249 23.622 19.6164 22.8059C20.4778 20.3707 21.6572 17.9743 23.5125 16.1479C25.3677 14.3214 27.9916 13.1038 30.6154 13.3758C28.0048 12.6634 25.3015 12.0157 22.7836 11.0313C20.8621 10.267 19.4177 9.37325 17.2576 10.28C15.8397 10.8629 14.7795 12.0416 13.8652 13.2593C13.0966 14.2826 12.4075 15.3707 11.8111 16.4976C11.0823 17.8447 10.486 19.2696 9.53183 20.4743C8.57771 21.6789 7.19952 22.6634 5.64906 22.7152" fill="#FFD391"></path><path d="M5.63594 22.9095C7.80923 24.1531 9.98252 25.4225 12.1558 26.666C12.6726 26.9639 13.2027 27.2619 13.7195 27.5598C14.1038 27.78 14.4616 27.9873 14.9122 28.0002C15.8001 28.0002 16.7807 27.4821 17.4698 26.9769C19.1925 25.6945 19.6033 23.6738 20.3719 21.8085C21.1935 19.8137 22.2934 17.8836 23.8836 16.381C25.6859 14.6712 28.1507 13.5702 30.6818 13.8033C31.1721 13.8422 31.0131 13.0909 30.6553 13.0002C28.4158 12.3914 26.1629 11.8344 23.9764 11.0702C22.2404 10.4613 20.4514 9.3344 18.5299 9.50279C16.5422 9.67119 14.9917 11.0572 13.8255 12.5339C12.4871 14.2308 11.4932 16.109 10.5126 18.0132C9.4657 20.0209 7.99475 22.1194 5.51667 22.4303C5.18538 22.4691 5.45041 23.065 5.7022 23.065C9.99577 23.0779 11.321 17.9613 13.1497 15.0986C14.2098 13.4277 15.4688 11.6012 17.3108 10.7463C19.4045 9.78777 21.2465 10.8888 23.1945 11.6142C25.6064 12.508 28.111 13.1038 30.589 13.7645C30.5758 13.4924 30.5758 13.2204 30.5625 12.9613C26.4015 12.6116 22.9428 15.4095 21.0213 18.7774C20.5177 19.6453 20.1069 20.552 19.7358 21.4847C19.3118 22.5598 19.0467 23.7126 18.4769 24.723C17.9999 25.5909 17.2843 26.3033 16.3964 26.7955C15.9458 27.0417 15.4423 27.2619 14.9387 27.3266C14.2098 27.4303 13.5075 26.8344 12.9112 26.4976C10.4861 25.1505 8.04776 23.8033 5.62269 22.4432C5.33115 22.2748 5.43716 22.793 5.63594 22.9095Z" fill="black"></path><path d="M5.23828 21.2125C7.99465 22.7799 10.7643 24.3472 13.5206 25.9146C13.7459 26.0441 13.9845 26.1736 14.2495 26.2125C14.4615 26.2384 14.6868 26.1996 14.8988 26.1477C16.277 25.8109 17.4962 24.9301 18.225 23.7384C18.6756 23.0001 18.9406 22.1581 19.2322 21.342C20.0935 18.9068 21.2729 16.5104 23.1282 14.684C24.9834 12.8576 29.2638 11.8602 29.2638 11.8602C29.2638 11.8602 24.9039 10.5519 22.3861 9.55447C20.4646 8.79022 19.0201 7.89644 16.8601 8.80318C15.4422 9.38608 14.382 10.5648 13.4676 11.7825C12.699 12.8058 12.0099 13.8939 11.4136 15.0208C10.698 16.3679 10.0884 17.7928 9.14756 18.9975C8.20668 20.2021 6.81524 21.1995 5.26478 21.2514" fill="#FFD391"></path><path d="M5.13234 21.4716C7.55742 22.8576 9.96924 24.2695 12.3811 25.6556C12.8846 25.9405 13.4412 26.3809 14.011 26.5105C14.5014 26.6271 15.0182 26.4587 15.4687 26.3032C16.3964 25.9664 17.2445 25.3835 17.8806 24.6322C18.6492 23.7255 19.0335 22.6374 19.4178 21.5493C19.8153 20.4224 20.2791 19.3214 20.849 18.2721C21.8826 16.368 23.221 14.697 25.222 13.7126C26.4942 13.0908 27.8857 12.6115 29.2638 12.2877C29.5819 12.21 29.7674 11.5623 29.3831 11.4587C28.2435 11.1089 27.1038 10.7462 25.9774 10.3706C25.0763 10.0727 24.1884 9.76177 23.3005 9.43794C22.3067 9.06229 21.3525 8.59597 20.3321 8.27214C15.6145 6.76955 12.4871 12.0675 10.7378 15.5001C9.57169 17.767 8.22001 20.5649 5.31787 20.9146C5.02633 20.9535 4.8408 21.5882 5.1986 21.5882C7.27913 21.6012 8.9091 20.1245 9.96924 18.5053C10.6186 17.5079 11.0956 16.4198 11.6522 15.3835C12.2353 14.2825 12.8846 13.2333 13.6135 12.2359C14.9519 10.3965 16.8999 8.46644 19.4443 8.99753C20.4912 9.21773 21.4585 9.72291 22.4392 10.0986C23.3005 10.4353 24.1884 10.7333 25.063 11.0312C26.4015 11.4716 27.7399 11.8991 29.0916 12.3006C29.1313 12.0286 29.1711 11.7436 29.2108 11.4716C28.1242 11.7307 27.0375 12.0934 26.0039 12.5338C24.2679 13.2721 22.9162 14.2436 21.7766 15.7203C20.3984 17.5208 19.5238 19.6063 18.7817 21.7307C18.3576 22.9613 17.8541 24.1141 16.7674 24.9302C16.3036 25.2799 15.7868 25.5519 15.2435 25.7333C14.5014 25.9794 14.0375 25.8499 13.3882 25.4872C10.6981 23.9846 7.99473 22.482 5.30461 20.9664C5.13234 20.824 4.92031 21.355 5.13234 21.4716Z" fill="black"></path><path d="M9.13428 20.7075C11.5461 21.8474 13.9182 23.0521 16.2637 24.3215L9.13428 20.7075Z" fill="#FFD391"></path><path d="M8.97534 20.9794C11.3872 22.1193 13.7592 23.324 16.1048 24.5934C16.4758 24.8006 16.8071 24.2307 16.4361 24.0364C14.0905 22.767 11.7052 21.5753 9.30663 20.4224C9.14761 20.3447 8.94884 20.3835 8.85607 20.539C8.76331 20.6815 8.80307 20.9017 8.97534 20.9794Z" fill="black"></path><path d="M17.1782 23.272C14.8591 22.0803 12.381 20.9015 10.0752 19.8394L17.1782 23.272Z" fill="#FFD391"></path><path d="M17.3372 23.0001C14.9916 21.7954 12.6195 20.6685 10.2342 19.5674C10.0752 19.4897 9.87641 19.5286 9.78365 19.684C9.70414 19.8265 9.7439 20.0467 9.90292 20.1244C12.2882 21.2255 14.6603 22.3653 17.0059 23.5571C17.3902 23.7514 17.7215 23.1944 17.3372 23.0001Z" fill="black"></path><path d="M10.804 18.8811C13.0038 19.8656 15.4951 20.9925 17.7744 22.0935L10.804 18.8811Z" fill="#FFD391"></path><path d="M10.645 19.153C12.9773 20.2022 15.3096 21.2514 17.6154 22.3654C17.9997 22.5468 18.331 21.9898 17.9467 21.8084C15.6409 20.6944 13.3086 19.6452 10.9763 18.596C10.8173 18.5183 10.6185 18.5571 10.5257 18.7126C10.4462 18.8551 10.4727 19.0882 10.645 19.153Z" fill="black"></path><path d="M11.427 17.8574C13.5075 18.7512 15.9989 19.8263 18.2384 20.8497L11.427 17.8574Z" fill="#FFD391"></path><path d="M11.2547 18.1295C13.534 19.1139 15.8133 20.0984 18.0661 21.1217C18.2252 21.1994 18.4239 21.1606 18.5167 21.0051C18.5962 20.8626 18.5565 20.6424 18.3974 20.5647C16.1446 19.5284 13.8653 18.5569 11.586 17.5725C11.427 17.5077 11.2282 17.5207 11.1355 17.6891C11.0559 17.8316 11.0957 18.0647 11.2547 18.1295Z" fill="black"></path><path d="M11.9836 16.8083C13.9847 17.6503 16.4628 18.6607 18.6891 19.6322L11.9836 16.8083Z" fill="#FFD391"></path><path d="M11.8114 17.0804C14.0509 18.0131 16.2905 18.9328 18.5168 19.9043C18.6758 19.969 18.8746 19.9561 18.9673 19.7877C19.0468 19.6452 19.0071 19.412 18.8481 19.3473C16.635 18.3758 14.3822 17.4561 12.1427 16.5234C11.9836 16.4587 11.7849 16.4716 11.6921 16.64C11.6126 16.7695 11.6523 17.0156 11.8114 17.0804Z" fill="black"></path><path d="M19.2058 18.4404C16.9662 17.5207 14.4749 16.5362 12.5269 15.7461L19.2058 18.4404Z" fill="#FFD391"></path><path d="M19.2853 18.1296C17.059 17.2099 14.8327 16.3291 12.6064 15.4353C12.4474 15.3705 12.2486 15.513 12.1956 15.6555C12.1426 15.8368 12.2619 15.9923 12.4209 16.057C14.6472 16.9508 16.8868 17.8316 19.0998 18.7513C19.2588 18.8161 19.4709 18.6736 19.5106 18.5311C19.5769 18.3368 19.4576 18.1943 19.2853 18.1296Z" fill="black"></path><path d="M13.0965 15.0207C13.5206 15.0207 13.5206 14.373 13.0965 14.373C12.6592 14.373 12.6592 15.0207 13.0965 15.0207Z" fill="black"></path><path d="M13.7194 13.9973C14.1435 13.9973 14.1435 13.3496 13.7194 13.3496C13.2954 13.3496 13.2954 13.9973 13.7194 13.9973Z" fill="black"></path><path d="M14.4086 12.987C14.8327 12.987 14.8327 12.3394 14.4086 12.3394C13.9846 12.3394 13.9846 12.987 14.4086 12.987Z" fill="black"></path><path d="M15.1508 11.9897C15.5749 11.9897 15.5749 11.342 15.1508 11.342C14.7267 11.342 14.7267 11.9897 15.1508 11.9897Z" fill="black"></path><path d="M16.0252 11.0312C16.4493 11.0312 16.4493 10.3835 16.0252 10.3835C15.5879 10.3835 15.5879 11.0312 16.0252 11.0312Z" fill="black"></path><path d="M14.3955 15.28C15.2171 13.7385 16.2905 12.3266 17.5626 11.1219C17.8674 10.837 17.4036 10.3706 17.0988 10.6686C15.7737 11.9121 14.6738 13.3629 13.8256 14.9561C13.6269 15.3188 14.1967 15.6427 14.3955 15.28Z" fill="black"></path><path d="M15.3363 15.6942C15.8531 14.9299 16.4362 14.2175 17.0988 13.5698C17.218 13.4403 17.2313 13.233 17.0988 13.1164C16.9662 12.9869 16.7542 12.9869 16.6349 13.1164C15.9459 13.803 15.3098 14.5672 14.7664 15.3703C14.6737 15.5128 14.7399 15.733 14.8857 15.8107C15.0447 15.9014 15.2435 15.8366 15.3363 15.6942Z" fill="black"></path><path d="M16.701 16.2383C16.8467 15.9922 17.0058 15.7461 17.178 15.5129C17.1913 15.5 17.1913 15.487 17.2045 15.4741C17.1913 15.487 17.178 15.5129 17.2045 15.487C17.231 15.4611 17.2575 15.4352 17.2708 15.3963C17.3105 15.3445 17.3635 15.2927 17.4033 15.2409C17.4961 15.1243 17.6021 15.0207 17.7081 14.9171C17.8274 14.8005 17.8406 14.5803 17.7081 14.4637C17.5756 14.3471 17.3768 14.3342 17.2443 14.4637C16.807 14.8912 16.4227 15.3834 16.1179 15.9145C16.0384 16.057 16.0781 16.2772 16.2371 16.3549C16.4094 16.4326 16.6082 16.3937 16.701 16.2383Z" fill="black"></path><path d="M17.9866 16.6789C18.2384 16.2774 18.5034 15.8888 18.795 15.5131C18.9275 15.3447 19.06 15.1634 19.1925 15.008C19.272 14.9173 19.3515 14.8136 19.431 14.723C19.4708 14.6841 19.5105 14.6323 19.5371 14.5934C19.5503 14.5675 19.5768 14.5546 19.5901 14.5287C19.6033 14.5157 19.6033 14.5028 19.6166 14.4898C19.6431 14.451 19.6298 14.4639 19.5636 14.5157C19.484 14.5028 19.3913 14.4898 19.3118 14.4769C19.325 14.4769 19.325 14.4898 19.3383 14.4898C19.4973 14.5675 19.6961 14.5287 19.7888 14.3732C19.8816 14.2307 19.8286 14.0105 19.6696 13.9328C19.3118 13.7385 19.0865 14.1012 18.8877 14.3473C18.7022 14.5675 18.5299 14.7877 18.3576 15.0209C18.0263 15.4484 17.7216 15.9017 17.43 16.3551C17.3373 16.4976 17.4035 16.7178 17.5493 16.7955C17.6951 16.8862 17.8938 16.8214 17.9866 16.6789Z" fill="black"></path><path d="M19.1129 17.1451C19.2189 16.9508 19.3382 16.7694 19.4707 16.6011C19.4575 16.627 19.431 16.6399 19.4177 16.6658C19.4442 16.627 19.484 16.5881 19.5105 16.5492C19.5635 16.4845 19.6032 16.4068 19.6032 16.3161C19.6032 16.2384 19.5635 16.1477 19.5105 16.0829C19.4442 16.0311 19.3647 15.9793 19.2719 15.9922C19.1924 15.9922 19.0864 16.0182 19.0334 16.0829C18.8479 16.3031 18.6756 16.5492 18.5298 16.7954C18.4901 16.8731 18.4768 16.9637 18.4901 17.0415C18.5166 17.1192 18.5696 17.1969 18.6358 17.2358C18.7154 17.2746 18.8081 17.3005 18.8876 17.2746C18.9936 17.2617 19.0732 17.2228 19.1129 17.1451Z" fill="black"></path><path d="M8.1668 21.7824C8.69688 22.0286 9.22695 22.2747 9.74377 22.5208C9.90279 22.5985 10.1148 22.5726 10.1943 22.4042C10.2738 22.2617 10.2473 22.0415 10.0751 21.9638C9.54499 21.7177 9.01492 21.4716 8.4981 21.2255C8.33908 21.1477 8.12705 21.1736 8.04754 21.342C7.98128 21.4845 8.00778 21.7047 8.1668 21.7824Z" fill="black"></path><path d="M13.1496 15.2409C15.2832 16.0829 17.43 16.886 19.5768 17.6632C19.749 17.7279 19.9345 17.5984 19.9876 17.443C20.0406 17.2616 19.9213 17.1062 19.7623 17.0414C17.6022 16.2642 15.4687 15.4481 13.3352 14.6191C13.1629 14.5544 12.9774 14.6839 12.9244 14.8393C12.8714 15.0207 12.9774 15.1761 13.1496 15.2409Z" fill="black"></path></svg> 