<?xml version="1.0" encoding="UTF-8"?> <svg xmlns="http://www.w3.org/2000/svg" width="103" height="104" viewBox="0 0 103 104" fill="none"><mask id="mask0" maskUnits="userSpaceOnUse" x="0" y="0" width="103" height="104"><circle cx="51.4817" cy="52.1409" r="51.4817" fill="#FFD392"></circle></mask><g mask="url(#mask0)"><circle cx="51.4817" cy="52.1409" r="51.4817" fill="#FFD392"></circle><path d="M50.2697 37.5134C50.1036 36.3362 49.9375 35.1591 49.7714 33.9819L50.2697 37.5134Z" fill="#FFD391"></path><path d="M50.9341 37.6816C50.8234 36.6166 50.8787 35.4955 50.8787 34.4304C50.8787 33.7578 50.3804 33.2533 49.7713 33.0851C49.3284 32.973 48.4978 33.0851 48.6639 33.7578C48.9961 34.9349 49.3284 36.1121 49.5498 37.2892C49.6606 37.8498 51.0448 38.4664 50.9341 37.6816Z" fill="black"></path><path d="M51.6537 46.5946C51.8199 47.6596 51.9306 48.7808 52.0967 49.8458L51.6537 46.5946Z" fill="#FFD391"></path><path d="M50.9341 46.4263C51.0448 47.4353 50.9894 48.3882 50.9341 49.3972C50.9341 50.0699 51.4324 50.5744 52.0415 50.7425C52.4844 50.8547 53.315 50.7425 53.1489 50.0699C52.8167 49.0048 52.4844 47.9398 52.3183 46.8187C52.2629 46.2582 50.8787 45.6415 50.9341 46.4263Z" fill="black"></path><path d="M54.0347 37.8497C52.9827 37.121 51.6538 36.6165 50.2695 36.7847C48.8852 36.9528 47.501 38.0739 47.5564 39.2511C47.5564 40.204 48.3315 40.9327 49.2175 41.3812C50.1034 41.8296 51.1554 42.0538 52.0414 42.4462C52.9827 42.8386 53.8686 43.4552 54.1454 44.3521C54.2008 44.6323 54.2562 44.9126 54.1454 45.1929C54.0347 45.5292 53.7578 45.8095 53.481 46.0337C52.5951 46.7624 51.3215 47.0988 50.2141 46.8745C49.1067 46.6503 48.1654 45.9216 47.7778 44.9687" fill="#FFD391"></path><path d="M54.6439 36.7288C53.0381 35.3274 50.934 34.7668 48.9961 35.7198C47.5564 36.3924 46.3383 37.962 46.449 39.6436C46.6151 41.5495 48.2209 42.5024 49.8266 43.119C50.325 43.2872 50.8233 43.3993 51.2663 43.6235C51.82 43.8477 53.0935 44.4643 52.3183 45.3051C51.2663 46.4823 49.0514 44.9688 48.6085 43.9598C47.944 42.5024 46.2275 44.8007 46.8366 45.9778C48.5531 49.3972 54.8653 48.8366 55.1422 44.6885C55.2529 42.6706 53.5365 41.5495 51.8753 40.9329C51.0448 40.5965 48.4977 40.092 48.83 38.971C49.3283 37.2893 52.6505 38.5786 53.6472 38.971C54.6992 39.4194 55.3637 37.3454 54.6439 36.7288Z" fill="black"></path><path d="M28.232 120.643C27.5122 88.4115 27.8998 56.18 27.7891 24.0045C27.5676 24.2848 27.4015 24.565 27.18 24.8453C30.0039 23.5 32.9385 22.2107 35.8732 21.0896C40.9672 19.1277 45.6737 18.4551 51.1001 18.2869C59.904 18.0627 67.6558 21.1457 75.7953 24.0045C75.1309 23.2197 74.4664 22.491 73.7466 21.7062C74.4111 36.6168 73.8573 51.4713 73.8573 66.3819C73.8573 78.6579 73.8573 90.99 73.8573 103.266C73.8573 108.984 73.7466 114.701 74.0788 120.419C74.1342 121.876 77.5672 124.062 77.6225 121.876C77.8994 109.88 77.5118 97.8847 77.4564 85.889C77.4011 70.8663 77.3457 55.8436 77.6225 40.8209C77.7333 34.767 77.5118 28.7691 77.235 22.7152C77.1796 21.6502 76.0722 20.6973 75.1862 20.417C66.7145 17.5021 58.6858 14.3631 49.605 14.5873C44.1787 14.7554 39.3615 15.316 34.212 17.2779C31.1113 18.5111 28.0105 19.8564 24.9652 21.3139C24.6329 21.482 24.3561 21.7623 24.3561 22.1547C24.5222 54.4983 24.5222 86.7859 25.5189 119.073C25.5742 120.307 28.232 122.325 28.232 120.643Z" fill="black"></path><path d="M30.7237 28.6008C30.3915 34.4305 30.3915 40.1481 30.5576 45.9778C30.6683 49.1169 30.4469 52.6483 31.222 55.7313C31.5543 56.9645 32.4402 58.3099 33.8245 58.0296C35.0426 57.8054 37.5897 57.9735 39.3061 57.9175C43.4036 57.8614 47.501 57.8054 51.5984 57.7493C57.4677 57.6372 63.337 57.5811 69.2062 57.5251C70.0922 57.5251 70.369 56.6282 70.4244 55.8434C70.8674 46.7626 70.9781 37.6256 70.5905 28.5447C70.5351 27.3676 69.7046 25.742 68.3757 26.0223C61.6758 27.2555 54.533 26.6389 47.7778 26.6949C44.4556 26.6949 41.1334 26.751 37.8111 26.751C35.6517 26.751 32.4956 26.0223 31.0559 27.9842C30.3361 28.8811 30.9452 31.0112 32.108 31.3475C34.8765 32.1323 37.645 31.7959 40.4689 31.6838C43.9573 31.5717 47.4456 31.5717 50.934 31.5156C57.3569 31.4035 63.6692 31.2354 69.9814 30.0022C69.2616 29.1613 68.4864 28.3205 67.7666 27.4797C67.9881 36.5045 67.4344 45.6415 67.0468 54.6663C67.4344 54.1057 67.8773 53.5452 68.2649 52.9846C62.2849 53.0968 56.3603 53.1528 50.3803 53.2649C46.3382 53.321 42.2408 53.377 38.1987 53.4331C36.3715 53.4331 34.3228 53.7134 32.4956 53.4331C33.2154 54.6102 33.9352 55.7874 34.7104 56.9645C35.098 53.7134 34.5996 50.238 34.4335 46.9307C34.1013 41.3252 33.6583 35.7198 33.3261 30.0582C33.16 28.9371 30.8345 26.4147 30.7237 28.6008Z" fill="black"></path><path d="M41.9086 61.3929C41.4656 66.3257 41.1334 71.2025 40.9673 76.1353C41.2441 75.799 41.521 75.5187 41.7978 75.1824C38.8078 75.2385 35.9285 75.3506 32.9385 75.3506C33.7691 76.0793 34.5996 76.864 35.4856 77.5928C35.5963 72.716 35.7071 67.8392 35.7624 62.9064C35.4302 63.2988 35.098 63.6912 34.7658 64.0835C36.2608 64.0835 37.7558 64.0835 39.2508 64.0835C40.4689 64.0835 43.5697 64.6441 44.511 63.579C45.1754 62.7943 44.3449 61.6732 43.7912 61.1687C42.3515 59.7673 39.6384 60.2718 37.8111 60.2718C36.15 60.2718 34.4889 60.2718 32.8278 60.2718C32.2187 60.2718 31.8311 60.8884 31.8311 61.449C31.8865 66.3818 32.108 71.3146 32.2187 76.2474C32.2741 77.4246 33.603 78.5457 34.7658 78.4896C37.7558 78.3775 40.635 78.4336 43.625 78.3775C44.1787 78.3775 44.4002 77.9291 44.4556 77.4246C44.6217 72.4918 44.6771 67.615 44.6217 62.7382C44.511 61.8413 42.0193 60.2158 41.9086 61.3929Z" fill="black"></path><path d="M54.7546 61.393C54.3116 66.3258 53.9794 71.2026 53.8133 76.1354C54.0901 75.7991 54.367 75.5188 54.6438 75.1825C51.6538 75.2385 48.7745 75.3506 45.7845 75.3506C46.6151 76.1354 47.501 76.8641 48.3316 77.6489C48.5531 72.8842 48.8299 68.0635 48.996 63.2428C48.6638 63.6352 48.3316 64.0276 47.9994 64.4199C49.439 64.3639 50.8233 64.3639 52.2629 64.3078C53.6472 64.2518 56.1942 64.6442 57.3016 63.6912C58.2429 62.8504 56.6925 61.2809 56.1388 60.8885C54.6992 59.8795 52.2075 60.44 50.5464 60.4961C49.0514 60.5522 47.5564 60.6082 46.006 60.6643C45.3969 60.6643 45.0093 61.2248 45.0093 61.8414C44.8986 66.6621 45.0094 71.5389 44.954 76.3596C44.954 77.5368 46.3936 78.6579 47.501 78.6579C50.491 78.5458 53.3703 78.6018 56.3603 78.5458C56.914 78.5458 57.1355 78.0973 57.1909 77.5928C57.357 72.66 57.4123 67.7832 57.357 62.9065C57.357 61.8414 54.8653 60.2158 54.7546 61.393Z" fill="black"></path><path d="M60.7345 77.817C61.1774 72.8842 61.5097 68.0074 61.6758 63.0746C61.3989 63.4109 61.1221 63.6912 60.8452 64.0275C63.8352 63.9715 66.7145 63.8593 69.7045 63.8593C68.8739 63.1306 68.0434 62.3459 67.1575 61.6172C67.0467 66.4939 66.936 71.3707 66.8806 76.3035C67.2128 75.9111 67.545 75.5188 67.8773 75.1264C66.3823 75.1264 64.8873 75.1264 63.3923 75.1264C62.1741 75.1264 59.0734 74.5658 58.1321 75.6309C57.4676 76.4156 58.2982 77.5367 58.8519 78.0412C60.2915 79.4426 63.0047 78.9381 64.8319 78.9381C66.493 78.9381 68.1541 78.9381 69.8152 78.9381C70.4243 78.9381 70.8119 78.3215 70.8119 77.7609C70.7565 72.8281 70.5351 67.8953 70.4243 62.9625C70.3689 61.7853 69.0401 60.6642 67.8773 60.7203C64.8873 60.8324 62.008 60.7763 59.018 60.8324C58.4643 60.8324 58.2428 61.2808 58.1874 61.7853C58.0213 66.7181 57.966 71.5949 58.0213 76.4717C58.1874 77.3125 60.6237 78.9942 60.7345 77.817Z" fill="black"></path><path d="M62.0081 98.2769L62.3403 83.7026L67.7666 83.5344V98.2769H62.0081Z" fill="black"></path><path d="M62.6725 98.5573C62.8386 94.8577 63.0047 91.102 63.1155 87.4024C63.1155 86.6176 63.2816 85.6647 63.1709 84.88C63.1709 84.7118 63.1155 84.3755 63.1709 84.2073C63.2816 83.6467 62.6171 84.4876 62.9494 84.3755C64.4997 83.871 66.6038 84.3194 68.2096 84.2634C67.7666 83.871 67.379 83.5346 66.9361 83.1423C66.8807 87.1221 66.8253 91.102 66.8253 95.138C66.8253 95.6425 66.6038 96.9317 66.8253 97.4362C67.1575 98.221 65.9948 97.3241 67.2683 97.268C67.0468 97.268 66.6592 97.3241 66.4377 97.268C65.6072 97.0438 61.8973 96.8196 61.4544 97.8286C61.3436 98.1089 61.6759 98.4452 61.7866 98.5573C63.1155 99.9587 66.5485 99.1739 68.3203 99.1739C68.6525 99.1739 68.8187 98.8936 68.8187 98.6134C68.7633 93.6805 68.7079 88.7477 68.5972 83.8149C68.5972 83.1983 67.8774 82.6378 67.3236 82.6938C65.5518 82.7499 63.7246 82.918 61.9527 82.862C61.6758 82.862 61.5651 83.0862 61.5651 83.3104C61.2329 88.1872 61.3436 93.0639 61.399 97.9407C61.399 98.5573 62.6171 99.3981 62.6725 98.5573Z" fill="black"></path><path d="M41.8532 62.7943H34.655V66.606H41.8532V62.7943Z" fill="black" stroke="black" stroke-width="0.5" stroke-miterlimit="10"></path><path d="M54.6439 67.6711H47.4457V71.4828H54.6439V67.6711Z" fill="black" stroke="black" stroke-width="0.5" stroke-miterlimit="10"></path><path d="M67.7665 71.9871H60.5684V75.7988H67.7665V71.9871Z" fill="black" stroke="black" stroke-width="0.5" stroke-miterlimit="10"></path><path d="M65.607 98.1086C66.5483 98.1086 65.607 96.8754 64.9979 96.8754C64.0013 96.8754 64.9979 98.1086 65.607 98.1086Z" fill="black"></path><path d="M65.2748 93.7926C65.1641 96.259 65.1087 100.183 64.9979 102.649C65.9392 103.042 66.9913 102.93 67.988 102.761C68.2094 102.705 68.4309 102.705 68.597 102.537C68.7078 102.425 68.7632 102.201 68.8185 102.033C69.1507 100.575 69.3722 99.0617 69.5937 97.6043C69.8152 96.1469 69.9813 94.6334 69.6491 93.232C69.3722 91.9428 68.7632 90.7656 68.1541 89.5885C67.3235 88.0189 66.493 86.4494 65.6624 84.8798C65.5517 84.7117 65.4963 84.5435 65.3302 84.3754C64.7765 83.8148 63.8352 84.2072 63.1707 84.6556C63.3922 86.7857 65.0533 93.5123 65.0533 93.5123" fill="#FFD391"></path><path d="M64.3889 93.232C64.1674 96.259 64.1674 99.286 63.9459 102.313C63.8905 102.93 64.4996 103.602 65.0533 103.77C66.7144 104.331 69.0954 104.555 69.8152 102.705C70.7565 100.351 70.978 96.5393 70.5904 94.0168C70.1474 91.0459 68.3202 88.2992 66.9359 85.6646C65.8839 83.6467 64.998 82.6377 62.6724 83.5906C62.3402 83.7027 62.1741 83.983 62.2294 84.3193C62.3402 86.2812 62.8939 88.1871 63.3922 90.149C63.7244 91.4383 63.8352 92.8397 64.6104 93.9608C64.8318 94.2971 65.8285 94.8576 65.9393 94.0729C66.1054 92.8957 65.607 91.7186 65.3856 90.5975C64.9426 88.6916 64.6104 86.7297 64.2228 84.7678C64.1674 85.1041 64.0567 85.3844 64.0013 85.7207C65.3856 84.8799 66.5483 88.1311 66.9913 88.9158C68.0433 90.8777 68.9846 92.6715 68.8739 95.0258C68.8185 96.4832 68.5417 97.8846 68.3202 99.286C67.9326 101.304 67.3235 102.201 65.0533 101.584C65.4409 102.089 65.7731 102.593 66.1607 103.042C66.1607 100.071 66.2715 97.1559 66.2715 94.185C66.1607 93.3442 64.4443 92.111 64.3889 93.232Z" fill="black"></path><path d="M66.0501 93.9047C66.3823 94.4092 66.8806 94.8016 67.4343 95.0819C67.988 95.3061 68.7079 95.3622 69.2616 95.0819C70.2029 94.6335 70.4243 93.4563 70.3136 92.5034C70.2029 91.102 69.2062 88.2993 67.0467 88.9719C64.998 89.6446 65.0534 92.4473 66.0501 93.9047Z" fill="#FFD391"></path><path d="M65.6071 94.185C66.7145 95.9788 69.6492 97.4923 70.9227 95.0259C71.8086 93.2881 71.1995 90.7096 70.0368 89.1961C68.8186 87.6266 66.4931 87.066 65.1642 88.8598C63.8906 90.5415 64.2782 93.3442 65.9394 94.5774C66.2716 94.8016 66.8253 94.8016 66.7699 94.2411C66.6592 93.2881 66.1608 92.2231 66.4377 91.2702C66.6592 90.4854 67.7112 89.5325 68.4864 90.2051C69.0401 90.6536 69.2616 91.7186 69.317 92.3913C69.3723 92.8958 69.2616 93.5684 68.874 93.9048C68.2649 94.4092 67.0468 94.185 66.5484 93.5684C65.8286 92.6715 64.9981 93.2321 65.6071 94.185Z" fill="black"></path><path d="M64.832 103.994C62.6725 111.674 64.2229 120.531 71.0335 125.351C76.6813 129.275 85.153 128.771 89.0843 122.549C94.0122 114.701 88.752 104.499 86.4265 96.6512C83.6026 87.0658 81.9415 77.0881 81.0002 67.1664C79.9481 56.0675 79.6713 44.9126 79.782 33.8137C79.782 31.8518 76.2937 30.8428 76.2383 32.9729C75.6846 53.6011 76.2937 74.2853 81.6092 94.3529C82.9381 99.4539 85.0422 104.387 86.205 109.544C87.3678 114.477 87.4231 120.699 82.1629 123.165C77.844 125.183 73.1929 123.333 70.4244 119.69C67.2129 115.486 67.1575 109.88 68.3203 104.891C68.6525 102.929 65.3303 102.032 64.832 103.994Z" fill="black"></path></g></svg> 