<?xml version="1.0" encoding="UTF-8"?> <svg xmlns="http://www.w3.org/2000/svg" width="530" height="275" viewBox="0 0 530 275" fill="none"><rect width="530" height="275" fill="white"></rect><g filter="url(#filter0_d_1_1147)"><rect x="13" y="9" width="504" height="249" rx="5" fill="white"></rect></g><rect x="38.7029" y="220.427" width="151.534" height="21.5507" fill="#E7E8EA"></rect><line opacity="0.1" x1="39" y1="204.6" x2="491" y2="204.6" stroke="black" stroke-width="0.8"></line><path d="M80.0074 54.7175C82.4854 54.7175 83.6334 53.3315 83.6334 51.7915C83.6334 49.9855 82.4294 49.2995 80.8894 48.9775L79.4334 48.6695C78.3274 48.4315 77.8094 47.9275 77.8094 46.9615C77.8094 45.9535 78.6494 45.3515 79.8674 45.3515C81.3374 45.3515 82.0794 46.0795 82.2474 47.4095L83.5774 47.1295C83.3814 45.1835 81.8694 44.3015 79.8954 44.3015C77.7814 44.3015 76.4374 45.4215 76.4374 47.0875C76.4374 48.7955 77.5154 49.5375 78.9294 49.8315L80.3714 50.1255C81.5334 50.3635 82.2614 50.7415 82.2614 51.9175C82.2614 53.1775 81.1274 53.6255 80.0494 53.6255C78.2994 53.6255 77.5434 52.5475 77.3614 51.3295L76.0174 51.5255C76.1854 53.3455 77.4734 54.7175 80.0074 54.7175ZM86.983 54.6475C88.131 54.6475 89.013 54.1015 89.335 53.2055C89.349 53.6535 89.391 54.1155 89.447 54.4795H90.693C90.525 53.9335 90.455 53.1915 90.455 52.1135V50.2235C90.455 48.1795 89.615 47.3115 87.697 47.3115C86.059 47.3115 84.939 48.2495 84.841 49.6775H86.115C86.171 48.7955 86.759 48.2915 87.711 48.2915C88.789 48.2915 89.251 48.8095 89.251 50.0975V50.2095L87.949 50.3635C86.801 50.5035 86.129 50.6715 85.597 50.9375C84.967 51.2875 84.617 51.8895 84.617 52.5895C84.617 53.8355 85.555 54.6475 86.983 54.6475ZM87.249 53.6675C86.395 53.6675 85.877 53.2475 85.877 52.5615C85.877 51.8755 86.325 51.5115 87.361 51.3575L89.265 51.0775V51.4275C89.265 52.7855 88.467 53.6675 87.249 53.6675ZM93.8439 44.3295H92.6539V54.4795H93.8439V44.3295ZM101.759 50.4895C101.759 48.3895 100.667 47.3115 98.7774 47.3115C96.7754 47.3115 95.5994 48.7255 95.5994 51.0635C95.5994 53.3735 96.7894 54.6475 98.7914 54.6475C100.205 54.6475 101.227 53.9755 101.717 52.7015L100.737 52.2675C100.429 53.1215 99.7714 53.5975 98.8754 53.5975C97.6294 53.5975 96.8034 52.7015 96.7894 51.3295H101.759V50.4895ZM100.555 50.3635H96.7894C96.8174 49.0475 97.5174 48.2495 98.7494 48.2495C99.8974 48.2495 100.555 48.9215 100.555 50.2095V50.3635ZM105.836 54.6475C107.544 54.6475 108.524 53.8355 108.524 52.5055C108.524 51.3995 107.978 50.6715 106.592 50.5175L105.472 50.3915C104.604 50.2935 104.212 49.9295 104.212 49.3275C104.212 48.6555 104.758 48.2775 105.682 48.2775C106.634 48.2775 107.208 48.8655 107.362 49.7055L108.538 49.4395C108.384 48.1515 107.306 47.3115 105.71 47.3115C104.058 47.3115 103.05 48.1095 103.05 49.3835C103.05 50.4615 103.708 51.2455 105.094 51.3995L106.228 51.5255C106.984 51.6095 107.348 51.9175 107.348 52.6175C107.348 53.2755 106.83 53.6675 105.892 53.6675C104.856 53.6675 104.198 53.1355 104.016 52.1135L102.812 52.3235C103.064 53.8215 104.17 54.6475 105.836 54.6475ZM113.786 54.4795H117.02C119.918 54.4795 121.766 52.3935 121.766 49.4955C121.766 46.5415 119.904 44.5395 117.048 44.5395H113.786V54.4795ZM115.116 53.3595V45.6595H117.02C119.162 45.6595 120.352 47.2835 120.352 49.4955C120.352 51.6235 119.134 53.3595 116.992 53.3595H115.116ZM128.974 50.4895C128.974 48.3895 127.882 47.3115 125.992 47.3115C123.99 47.3115 122.814 48.7255 122.814 51.0635C122.814 53.3735 124.004 54.6475 126.006 54.6475C127.42 54.6475 128.442 53.9755 128.932 52.7015L127.952 52.2675C127.644 53.1215 126.986 53.5975 126.09 53.5975C124.844 53.5975 124.018 52.7015 124.004 51.3295H128.974V50.4895ZM127.77 50.3635H124.004C124.032 49.0475 124.732 48.2495 125.964 48.2495C127.112 48.2495 127.77 48.9215 127.77 50.2095V50.3635ZM130.726 57.2095H131.916V53.3735C132.224 54.0595 132.98 54.6475 134.058 54.6475C135.752 54.6475 136.956 53.2195 136.956 50.9795C136.956 48.7675 135.822 47.3115 134.128 47.3115C133.106 47.3115 132.294 47.8155 131.846 48.7815V47.4795H130.726V57.2095ZM133.778 53.5975C132.616 53.5975 131.888 52.6455 131.888 51.1335V50.7975C131.888 49.2855 132.644 48.3615 133.82 48.3615C134.996 48.3615 135.696 49.3275 135.696 50.9795C135.696 52.6175 134.968 53.5975 133.778 53.5975ZM140.305 54.6475C141.453 54.6475 142.335 54.1015 142.657 53.2055C142.671 53.6535 142.713 54.1155 142.769 54.4795H144.015C143.847 53.9335 143.777 53.1915 143.777 52.1135V50.2235C143.777 48.1795 142.937 47.3115 141.019 47.3115C139.381 47.3115 138.261 48.2495 138.163 49.6775H139.437C139.493 48.7955 140.081 48.2915 141.033 48.2915C142.111 48.2915 142.573 48.8095 142.573 50.0975V50.2095L141.271 50.3635C140.123 50.5035 139.451 50.6715 138.919 50.9375C138.289 51.2875 137.939 51.8895 137.939 52.5895C137.939 53.8355 138.877 54.6475 140.305 54.6475ZM140.571 53.6675C139.717 53.6675 139.199 53.2475 139.199 52.5615C139.199 51.8755 139.647 51.5115 140.683 51.3575L142.587 51.0775V51.4275C142.587 52.7855 141.789 53.6675 140.571 53.6675ZM147.012 49.0755V47.4795H145.906V54.4795H147.096V51.4835C147.096 50.6435 147.124 49.7055 147.796 49.0335C148.132 48.6975 148.608 48.4875 149.336 48.4875H149.392V47.3255C149.308 47.3115 149.224 47.3115 149.14 47.3115C148.076 47.3115 147.348 48.0955 147.012 49.0755ZM150.169 48.4595H151.471V52.3795C151.471 53.6815 151.863 54.6055 153.375 54.6055C153.823 54.6055 154.103 54.5635 154.411 54.4795V53.3875C154.173 53.4435 153.991 53.4855 153.683 53.4855C152.969 53.4855 152.661 53.1355 152.661 52.3375V48.4595H154.411V47.4795H152.661V45.1415L151.471 45.6455V47.4795H150.169V48.4595ZM155.945 47.4795V54.4795H157.135V50.3915C157.135 49.1175 157.737 48.3335 158.717 48.3335C159.557 48.3335 160.033 48.9075 160.033 49.9295V54.4795H161.223V50.3355C161.223 49.0615 161.797 48.3335 162.791 48.3335C163.673 48.3335 164.121 48.8935 164.121 49.9855V54.4795H165.311V49.8875C165.311 48.2495 164.527 47.2835 163.183 47.2835C162.231 47.2835 161.517 47.7595 161.055 48.7115C160.733 47.7875 160.033 47.2835 159.067 47.2835C158.129 47.2835 157.457 47.7595 157.065 48.6975V47.4795H155.945ZM172.941 50.4895C172.941 48.3895 171.849 47.3115 169.959 47.3115C167.957 47.3115 166.781 48.7255 166.781 51.0635C166.781 53.3735 167.971 54.6475 169.973 54.6475C171.387 54.6475 172.409 53.9755 172.899 52.7015L171.919 52.2675C171.611 53.1215 170.953 53.5975 170.057 53.5975C168.811 53.5975 167.985 52.7015 167.971 51.3295H172.941V50.4895ZM171.737 50.3635H167.971C167.999 49.0475 168.699 48.2495 169.931 48.2495C171.079 48.2495 171.737 48.9215 171.737 50.2095V50.3635ZM174.693 54.4795H175.883V50.8255C175.883 49.2715 176.597 48.3335 177.759 48.3335C178.781 48.3335 179.299 48.9635 179.299 50.1955V54.4795H180.489V50.1255C180.489 48.2495 179.691 47.2835 178.151 47.2835C177.045 47.2835 176.275 47.8015 175.813 48.8655V47.4795H174.693V54.4795ZM181.404 48.4595H182.706V52.3795C182.706 53.6815 183.098 54.6055 184.61 54.6055C185.058 54.6055 185.338 54.5635 185.646 54.4795V53.3875C185.408 53.4435 185.226 53.4855 184.918 53.4855C184.204 53.4855 183.896 53.1355 183.896 52.3375V48.4595H185.646V47.4795H183.896V45.1415L182.706 45.6455V47.4795H181.404V48.4595Z" fill="#232722"></path><path d="M274.386 51.6795C274.386 50.0135 273.462 49.1455 271.376 48.6695L270.774 48.5295V46.1775C271.6 46.3455 272.216 46.8215 272.65 47.5915L274.162 46.3595C273.378 45.2815 272.244 44.6655 270.774 44.5535V43.2795H269.85V44.5535C267.792 44.6795 266.518 45.6875 266.518 47.2695C266.518 48.7255 267.456 49.6775 269.318 50.0975L269.85 50.2235V52.9955C268.898 52.8415 268.184 52.3235 267.666 51.3575L265.972 52.5195C266.63 53.7935 268.016 54.5775 269.85 54.6895V55.9775H270.774V54.6895C272.986 54.5355 274.386 53.3875 274.386 51.6795ZM268.52 47.1715C268.52 46.5415 269.024 46.1915 269.85 46.1355V48.3195C268.856 48.0535 268.52 47.7315 268.52 47.1715ZM270.774 53.0235V50.4335C271.88 50.7135 272.314 51.0495 272.314 51.7915C272.314 52.5055 271.726 52.9395 270.774 53.0235ZM279.498 47.9135C278.392 47.9135 277.552 48.3195 277.076 49.0615C277.132 47.2835 277.79 46.2335 278.896 46.2335C279.61 46.2335 280.058 46.6395 280.226 47.4235L282.354 47.0875C282.074 45.4075 280.912 44.5395 278.938 44.5395C276.432 44.5395 274.906 46.5135 274.906 49.7895C274.906 52.8835 276.39 54.6895 278.91 54.6895C281.024 54.6895 282.508 53.2475 282.508 51.1755C282.508 49.1595 281.36 47.9135 279.498 47.9135ZM278.854 52.9815C277.874 52.9815 277.23 52.1975 277.104 50.8955C277.384 50.0555 278.028 49.5515 278.826 49.5515C279.75 49.5515 280.352 50.2375 280.352 51.2735C280.352 52.3375 279.792 52.9815 278.854 52.9815ZM283.946 56.6495C285.262 56.2435 285.766 55.5155 285.766 54.3535V52.1835H283.372V54.4795H284.492V54.5075C284.492 55.1375 284.296 55.4595 283.484 55.7255L283.946 56.6495ZM292.698 49.1035C293.734 48.7255 294.224 48.0395 294.224 47.0175C294.224 45.5055 292.796 44.5395 290.584 44.5395C288.414 44.5395 286.972 45.6175 286.972 47.2415C286.972 48.3475 287.462 49.1035 288.554 49.6075C287.266 49.9995 286.692 50.7415 286.692 51.9455C286.692 53.5975 288.26 54.6895 290.654 54.6895C293.076 54.6895 294.658 53.5275 294.658 51.7775C294.658 50.4615 294.056 49.6215 292.698 49.1035ZM290.584 46.0655C291.522 46.0655 292.068 46.5415 292.068 47.3395C292.068 47.9555 291.83 48.3755 291.228 48.6835L290.682 48.5435C289.604 48.2775 289.142 47.8715 289.142 47.2415C289.142 46.4995 289.688 46.0655 290.584 46.0655ZM290.696 53.0375C289.674 53.0375 288.988 52.4775 288.988 51.6375C288.988 50.9095 289.296 50.4335 290.052 50.0835L290.808 50.2795C291.9 50.5735 292.362 51.0215 292.362 51.7215C292.362 52.5195 291.718 53.0375 290.696 53.0375ZM298.903 54.6895C301.241 54.6895 302.655 53.3315 302.655 51.1615C302.655 49.0755 301.493 47.8015 299.561 47.8015C298.595 47.8015 297.853 48.1375 297.419 48.7675L297.685 46.5415H302.151V44.7495H296.033L295.431 50.4055L297.447 50.6015C297.657 49.8595 298.175 49.4395 298.931 49.4395C299.869 49.4395 300.415 50.1535 300.415 51.2315C300.415 52.2955 299.855 52.9255 298.889 52.9255C298.091 52.9255 297.573 52.4215 297.419 51.6375L295.221 51.9875C295.501 53.6675 296.887 54.6895 298.903 54.6895ZM307.565 54.6895C310.211 54.6895 311.765 52.8135 311.765 49.6215C311.765 46.4155 310.211 44.5395 307.565 44.5395C304.933 44.5395 303.379 46.4155 303.379 49.6215C303.379 52.8135 304.933 54.6895 307.565 54.6895ZM307.565 52.9395C306.375 52.9395 305.703 51.7915 305.703 49.6215C305.703 47.4375 306.375 46.2895 307.565 46.2895C308.769 46.2895 309.441 47.4375 309.441 49.6215C309.441 51.7915 308.769 52.9395 307.565 52.9395ZM314.881 52.1835H312.487V54.4795H314.881V52.1835ZM316.206 54.4795H323.542V52.6875H319.286C320.266 52.1415 321.064 51.5955 321.708 51.0355C322.884 49.9855 323.458 48.8795 323.458 47.5775C323.458 45.6455 322.142 44.5395 319.902 44.5395C317.62 44.5395 316.192 45.7155 316.192 47.5355C316.192 47.7735 316.22 48.0395 316.276 48.2915L318.572 48.5155C318.516 48.2215 318.474 47.9555 318.474 47.7175C318.474 46.8495 318.964 46.3175 319.79 46.3175C320.602 46.3175 321.05 46.8215 321.05 47.7455C321.05 48.6975 320.672 49.4255 319.72 50.3075C318.866 51.1055 317.662 51.9455 316.206 52.8275V54.4795ZM327.827 54.6895C330.165 54.6895 331.579 53.3315 331.579 51.1615C331.579 49.0755 330.417 47.8015 328.485 47.8015C327.519 47.8015 326.777 48.1375 326.343 48.7675L326.609 46.5415H331.075V44.7495H324.957L324.355 50.4055L326.371 50.6015C326.581 49.8595 327.099 49.4395 327.855 49.4395C328.793 49.4395 329.339 50.1535 329.339 51.2315C329.339 52.2955 328.779 52.9255 327.813 52.9255C327.015 52.9255 326.497 52.4215 326.343 51.6375L324.145 51.9875C324.425 53.6675 325.811 54.6895 327.827 54.6895Z" fill="#232722"></path><circle opacity="0.6" cx="53.0329" cy="49.0329" r="14.0329" fill="#2047F4"></circle><path d="M58.3836 54.3926H60.8602V50.43L58.8789 49.4393L57.3929 45.4767H52.935V54.3926H54.4209" stroke="black" stroke-miterlimit="10"></path><path d="M56.4022 56.3739C57.4965 56.3739 58.3835 55.4868 58.3835 54.3926C58.3835 53.2983 57.4965 52.4113 56.4022 52.4113C55.308 52.4113 54.4209 53.2983 54.4209 54.3926C54.4209 55.4868 55.308 56.3739 56.4022 56.3739Z" stroke="black" stroke-miterlimit="10"></path><path d="M54.9161 47.458V49.4393H56.8975" stroke="black" stroke-miterlimit="10"></path><path d="M50.9535 45.4767H46.9908" stroke="black" stroke-miterlimit="10"></path><path d="M46 43H52.9346V45.4766" stroke="black" stroke-miterlimit="10"></path><path d="M50.9535 47.9532H47.9816" stroke="black" stroke-miterlimit="10"></path><path d="M50.9536 50.4299H48.9723" stroke="black" stroke-miterlimit="10"></path><path d="M83.707 83.4027H76.133V84.5227H79.255V93.3427H80.585V84.5227H83.707V83.4027ZM89.4363 89.3527C89.4363 87.2527 88.3443 86.1747 86.4543 86.1747C84.4523 86.1747 83.2763 87.5887 83.2763 89.9267C83.2763 92.2367 84.4663 93.5107 86.4683 93.5107C87.8823 93.5107 88.9043 92.8387 89.3943 91.5647L88.4143 91.1307C88.1063 91.9847 87.4483 92.4607 86.5523 92.4607C85.3063 92.4607 84.4803 91.5647 84.4663 90.1927H89.4363V89.3527ZM88.2323 89.2267H84.4663C84.4943 87.9107 85.1943 87.1127 86.4263 87.1127C87.5743 87.1127 88.2323 87.7847 88.2323 89.0727V89.2267ZM93.7784 93.5107C95.3464 93.5107 96.3964 92.5867 96.6484 90.9907L95.5144 90.8087C95.3324 91.9007 94.7444 92.4747 93.7924 92.4747C92.5464 92.4747 91.8184 91.5087 91.8184 89.8287C91.8184 88.1907 92.5464 87.2107 93.7504 87.2107C94.7024 87.2107 95.3184 87.7987 95.4444 88.8627L96.6625 88.7227C96.4804 87.1127 95.4164 86.1747 93.7784 86.1747C91.7904 86.1747 90.5584 87.5607 90.5584 89.8427C90.5584 92.0827 91.8184 93.5107 93.7784 93.5107ZM98.4176 93.3427H99.6076V89.6887C99.6076 88.1067 100.294 87.1967 101.498 87.1967C102.506 87.1967 103.024 87.8407 103.024 89.0727V93.3427H104.214V88.9887C104.214 87.1267 103.416 86.1467 101.904 86.1467C100.812 86.1467 100.028 86.6647 99.6076 87.6587V83.1927H98.4176V93.3427ZM106.313 93.3427H107.503V89.6887C107.503 88.1347 108.217 87.1967 109.379 87.1967C110.401 87.1967 110.919 87.8267 110.919 89.0587V93.3427H112.109V88.9887C112.109 87.1127 111.311 86.1467 109.771 86.1467C108.665 86.1467 107.895 86.6647 107.433 87.7287V86.3427H106.313V93.3427ZM114.127 85.0407H115.485V83.5427H114.127V85.0407ZM114.211 93.3427H115.401V86.3427H114.211V93.3427ZM120.296 93.5107C121.864 93.5107 122.914 92.5867 123.166 90.9907L122.032 90.8087C121.85 91.9007 121.262 92.4747 120.31 92.4747C119.064 92.4747 118.336 91.5087 118.336 89.8287C118.336 88.1907 119.064 87.2107 120.268 87.2107C121.22 87.2107 121.836 87.7987 121.962 88.8627L123.18 88.7227C122.998 87.1127 121.934 86.1747 120.296 86.1747C118.308 86.1747 117.076 87.5607 117.076 89.8427C117.076 92.0827 118.336 93.5107 120.296 93.5107ZM124.781 85.0407H126.139V83.5427H124.781V85.0407ZM124.865 93.3427H126.055V86.3427H124.865V93.3427ZM130.096 93.5107C131.244 93.5107 132.126 92.9647 132.448 92.0687C132.462 92.5167 132.504 92.9787 132.56 93.3427H133.806C133.638 92.7967 133.568 92.0547 133.568 90.9767V89.0867C133.568 87.0427 132.728 86.1747 130.81 86.1747C129.172 86.1747 128.052 87.1127 127.954 88.5407H129.228C129.284 87.6587 129.872 87.1547 130.824 87.1547C131.902 87.1547 132.364 87.6727 132.364 88.9607V89.0727L131.062 89.2267C129.914 89.3667 129.242 89.5347 128.71 89.8007C128.08 90.1507 127.73 90.7527 127.73 91.4527C127.73 92.6987 128.668 93.5107 130.096 93.5107ZM130.362 92.5307C129.508 92.5307 128.99 92.1107 128.99 91.4247C128.99 90.7387 129.438 90.3747 130.474 90.2207L132.378 89.9407V90.2907C132.378 91.6487 131.58 92.5307 130.362 92.5307ZM135.697 93.3427H136.887V89.6887C136.887 88.1347 137.601 87.1967 138.763 87.1967C139.785 87.1967 140.303 87.8267 140.303 89.0587V93.3427H141.493V88.9887C141.493 87.1127 140.695 86.1467 139.155 86.1467C138.049 86.1467 137.279 86.6647 136.817 87.7287V86.3427H135.697V93.3427ZM145.918 93.5107C147.626 93.5107 148.606 92.6987 148.606 91.3687C148.606 90.2627 148.06 89.5347 146.674 89.3807L145.554 89.2547C144.686 89.1567 144.294 88.7927 144.294 88.1907C144.294 87.5187 144.84 87.1407 145.764 87.1407C146.716 87.1407 147.29 87.7287 147.444 88.5687L148.62 88.3027C148.466 87.0147 147.388 86.1747 145.792 86.1747C144.14 86.1747 143.132 86.9727 143.132 88.2467C143.132 89.3247 143.79 90.1087 145.176 90.2627L146.31 90.3887C147.066 90.4727 147.43 90.7807 147.43 91.4807C147.43 92.1387 146.912 92.5307 145.974 92.5307C144.938 92.5307 144.28 91.9987 144.098 90.9767L142.894 91.1867C143.146 92.6847 144.252 93.5107 145.918 93.5107ZM153.869 93.3427H157.103C160.001 93.3427 161.849 91.2567 161.849 88.3587C161.849 85.4047 159.987 83.4027 157.131 83.4027H153.869V93.3427ZM155.199 92.2227V84.5227H157.103C159.245 84.5227 160.435 86.1467 160.435 88.3587C160.435 90.4867 159.217 92.2227 157.075 92.2227H155.199ZM169.057 89.3527C169.057 87.2527 167.965 86.1747 166.075 86.1747C164.073 86.1747 162.897 87.5887 162.897 89.9267C162.897 92.2367 164.087 93.5107 166.089 93.5107C167.503 93.5107 168.525 92.8387 169.015 91.5647L168.035 91.1307C167.727 91.9847 167.069 92.4607 166.173 92.4607C164.927 92.4607 164.101 91.5647 164.087 90.1927H169.057V89.3527ZM167.853 89.2267H164.087C164.115 87.9107 164.815 87.1127 166.047 87.1127C167.195 87.1127 167.853 87.7847 167.853 89.0727V89.2267ZM170.809 96.0727H171.999V92.2367C172.307 92.9227 173.063 93.5107 174.141 93.5107C175.835 93.5107 177.039 92.0827 177.039 89.8427C177.039 87.6307 175.905 86.1747 174.211 86.1747C173.189 86.1747 172.377 86.6787 171.929 87.6447V86.3427H170.809V96.0727ZM173.861 92.4607C172.699 92.4607 171.971 91.5087 171.971 89.9967V89.6607C171.971 88.1487 172.727 87.2247 173.903 87.2247C175.079 87.2247 175.779 88.1907 175.779 89.8427C175.779 91.4807 175.051 92.4607 173.861 92.4607ZM180.388 93.5107C181.536 93.5107 182.418 92.9647 182.74 92.0687C182.754 92.5167 182.796 92.9787 182.852 93.3427H184.098C183.93 92.7967 183.86 92.0547 183.86 90.9767V89.0867C183.86 87.0427 183.02 86.1747 181.102 86.1747C179.464 86.1747 178.344 87.1127 178.246 88.5407H179.52C179.576 87.6587 180.164 87.1547 181.116 87.1547C182.194 87.1547 182.656 87.6727 182.656 88.9607V89.0727L181.354 89.2267C180.206 89.3667 179.534 89.5347 179.002 89.8007C178.372 90.1507 178.022 90.7527 178.022 91.4527C178.022 92.6987 178.96 93.5107 180.388 93.5107ZM180.654 92.5307C179.8 92.5307 179.282 92.1107 179.282 91.4247C179.282 90.7387 179.73 90.3747 180.766 90.2207L182.67 89.9407V90.2907C182.67 91.6487 181.872 92.5307 180.654 92.5307ZM187.095 87.9387V86.3427H185.989V93.3427H187.179V90.3467C187.179 89.5067 187.207 88.5687 187.879 87.8967C188.215 87.5607 188.691 87.3507 189.419 87.3507H189.475V86.1887C189.391 86.1747 189.307 86.1747 189.223 86.1747C188.159 86.1747 187.431 86.9587 187.095 87.9387ZM190.252 87.3227H191.554V91.2427C191.554 92.5447 191.946 93.4687 193.458 93.4687C193.906 93.4687 194.186 93.4267 194.494 93.3427V92.2507C194.256 92.3067 194.074 92.3487 193.766 92.3487C193.052 92.3487 192.744 91.9987 192.744 91.2007V87.3227H194.494V86.3427H192.744V84.0047L191.554 84.5087V86.3427H190.252V87.3227ZM196.028 86.3427V93.3427H197.218V89.2547C197.218 87.9807 197.82 87.1967 198.8 87.1967C199.64 87.1967 200.116 87.7707 200.116 88.7927V93.3427H201.306V89.1987C201.306 87.9247 201.88 87.1967 202.874 87.1967C203.756 87.1967 204.204 87.7567 204.204 88.8487V93.3427H205.394V88.7507C205.394 87.1127 204.61 86.1467 203.266 86.1467C202.314 86.1467 201.6 86.6227 201.138 87.5747C200.816 86.6507 200.116 86.1467 199.15 86.1467C198.212 86.1467 197.54 86.6227 197.148 87.5607V86.3427H196.028ZM213.023 89.3527C213.023 87.2527 211.931 86.1747 210.041 86.1747C208.039 86.1747 206.863 87.5887 206.863 89.9267C206.863 92.2367 208.053 93.5107 210.055 93.5107C211.469 93.5107 212.491 92.8387 212.981 91.5647L212.001 91.1307C211.693 91.9847 211.035 92.4607 210.139 92.4607C208.893 92.4607 208.067 91.5647 208.053 90.1927H213.023V89.3527ZM211.819 89.2267H208.053C208.081 87.9107 208.781 87.1127 210.013 87.1127C211.161 87.1127 211.819 87.7847 211.819 89.0727V89.2267ZM214.776 93.3427H215.966V89.6887C215.966 88.1347 216.68 87.1967 217.842 87.1967C218.864 87.1967 219.382 87.8267 219.382 89.0587V93.3427H220.572V88.9887C220.572 87.1127 219.774 86.1467 218.234 86.1467C217.128 86.1467 216.358 86.6647 215.896 87.7287V86.3427H214.776V93.3427ZM221.486 87.3227H222.788V91.2427C222.788 92.5447 223.18 93.4687 224.692 93.4687C225.14 93.4687 225.42 93.4267 225.728 93.3427V92.2507C225.49 92.3067 225.308 92.3487 225 92.3487C224.286 92.3487 223.978 91.9987 223.978 91.2007V87.3227H225.728V86.3427H223.978V84.0047L222.788 84.5087V86.3427H221.486V87.3227Z" fill="#232722"></path><path d="M274.386 90.7653C274.386 89.0993 273.462 88.2313 271.376 87.7553L270.774 87.6153V85.2633C271.6 85.4313 272.216 85.9073 272.65 86.6773L274.162 85.4453C273.378 84.3673 272.244 83.7513 270.774 83.6393V82.3653H269.85V83.6393C267.792 83.7653 266.518 84.7733 266.518 86.3553C266.518 87.8113 267.456 88.7633 269.318 89.1833L269.85 89.3093V92.0813C268.898 91.9273 268.184 91.4093 267.666 90.4433L265.972 91.6053C266.63 92.8793 268.016 93.6633 269.85 93.7753V95.0633H270.774V93.7753C272.986 93.6213 274.386 92.4733 274.386 90.7653ZM268.52 86.2573C268.52 85.6273 269.024 85.2773 269.85 85.2213V87.4053C268.856 87.1393 268.52 86.8173 268.52 86.2573ZM270.774 92.1093V89.5193C271.88 89.7993 272.314 90.1353 272.314 90.8773C272.314 91.5913 271.726 92.0253 270.774 92.1093ZM276.77 93.5653H279.024V83.8353H277.19C276.798 84.8993 276.126 85.3473 274.95 85.3893H274.684V87.4193H275.076C275.734 87.4193 276.392 87.2373 276.77 86.8873V93.5653ZM281.54 95.7353C282.856 95.3293 283.36 94.6013 283.36 93.4393V91.2693H280.966V93.5653H282.086V93.5933C282.086 94.2233 281.89 94.5453 281.078 94.8113L281.54 95.7353ZM290.292 88.1893C291.328 87.8113 291.818 87.1253 291.818 86.1033C291.818 84.5913 290.39 83.6253 288.178 83.6253C286.008 83.6253 284.566 84.7033 284.566 86.3273C284.566 87.4333 285.056 88.1893 286.148 88.6933C284.86 89.0853 284.286 89.8273 284.286 91.0313C284.286 92.6833 285.854 93.7753 288.248 93.7753C290.67 93.7753 292.252 92.6133 292.252 90.8633C292.252 89.5473 291.65 88.7073 290.292 88.1893ZM288.178 85.1513C289.116 85.1513 289.662 85.6273 289.662 86.4253C289.662 87.0413 289.424 87.4613 288.822 87.7693L288.276 87.6293C287.198 87.3633 286.736 86.9573 286.736 86.3273C286.736 85.5853 287.282 85.1513 288.178 85.1513ZM288.29 92.1233C287.268 92.1233 286.582 91.5633 286.582 90.7233C286.582 89.9953 286.89 89.5193 287.646 89.1693L288.402 89.3653C289.494 89.6593 289.956 90.1073 289.956 90.8073C289.956 91.6053 289.312 92.1233 288.29 92.1233ZM293.635 93.5653H296.099V93.2153C296.099 90.1633 297.233 87.7133 299.291 85.5713V83.8353H292.305V85.7113H297.051C294.937 87.9373 293.635 90.6113 293.635 93.3973V93.5653ZM303.828 86.9993C302.722 86.9993 301.882 87.4053 301.406 88.1473C301.462 86.3693 302.12 85.3193 303.226 85.3193C303.94 85.3193 304.388 85.7253 304.556 86.5093L306.684 86.1733C306.404 84.4933 305.242 83.6253 303.268 83.6253C300.762 83.6253 299.236 85.5993 299.236 88.8753C299.236 91.9693 300.72 93.7753 303.24 93.7753C305.354 93.7753 306.838 92.3333 306.838 90.2613C306.838 88.2453 305.69 86.9993 303.828 86.9993ZM303.184 92.0673C302.204 92.0673 301.56 91.2833 301.434 89.9813C301.714 89.1413 302.358 88.6373 303.156 88.6373C304.08 88.6373 304.682 89.3233 304.682 90.3593C304.682 91.4233 304.122 92.0673 303.184 92.0673ZM310.096 91.2693H307.702V93.5653H310.096V91.2693ZM312.328 93.5653H314.582V83.8353H312.748C312.356 84.8993 311.684 85.3473 310.508 85.3893H310.242V87.4193H310.634C311.292 87.4193 311.95 87.2373 312.328 86.8873V93.5653ZM319.842 83.6253C317.56 83.6253 316.146 84.9973 316.146 86.9573C316.146 88.8753 317.434 90.1073 319.422 90.1073C320.332 90.1073 321.144 89.7853 321.606 89.0713C321.592 90.9193 321.032 92.0253 319.898 92.0253C319.086 92.0253 318.596 91.5493 318.428 90.7933L316.3 91.1713C316.58 92.8653 317.854 93.7753 319.786 93.7753C322.516 93.7753 323.762 91.7733 323.762 88.5393C323.762 85.2913 322.376 83.6253 319.842 83.6253ZM319.842 88.4693C318.932 88.4693 318.302 87.8113 318.302 86.8873C318.302 85.9213 318.918 85.2773 319.87 85.2773C321.032 85.2773 321.536 86.1593 321.592 87.1953C321.312 87.9653 320.598 88.4693 319.842 88.4693Z" fill="#232722"></path><circle opacity="0.5" cx="52.7358" cy="87.8204" r="14.0329" fill="#7DCFE7"></circle><path d="M56.9619 93.1516H59.4386V89.189L57.4573 88.1983L55.9713 84.2357H51.5133V93.1516H52.9993" stroke="black" stroke-miterlimit="10"></path><path d="M54.9806 95.1329C56.0748 95.1329 56.9619 94.2459 56.9619 93.1516C56.9619 92.0574 56.0748 91.1703 54.9806 91.1703C53.8863 91.1703 52.9993 92.0574 52.9993 93.1516C52.9993 94.2459 53.8863 95.1329 54.9806 95.1329Z" stroke="black" stroke-miterlimit="10"></path><path d="M53.4945 86.217V88.1984H55.4758" stroke="black" stroke-miterlimit="10"></path><path d="M49.5318 84.2357H45.5692" stroke="black" stroke-miterlimit="10"></path><path d="M44.5784 81.759H51.513V84.2357" stroke="black" stroke-miterlimit="10"></path><path d="M49.5319 86.7123H46.5599" stroke="black" stroke-miterlimit="10"></path><path d="M49.532 89.189H47.5507" stroke="black" stroke-miterlimit="10"></path><path d="M78.3274 131.531V128.115H82.9194V126.995H78.3274V123.831H83.1574V122.711H76.9974V132.651H83.2554V131.531H78.3274ZM84.1697 132.651H85.5837L87.0117 130.495C87.2637 130.117 87.3897 129.879 87.4177 129.781H87.4317C87.4597 129.893 87.5997 130.159 87.8237 130.495L89.2657 132.651H90.6797L88.1877 129.123L90.4977 125.651H89.0417L87.8377 127.625C87.6277 127.975 87.5017 128.213 87.4457 128.353H87.4317C87.3897 128.227 87.2637 128.003 87.0257 127.625L85.7517 125.651H84.3517L86.7037 129.039L84.1697 132.651ZM97.1979 128.661C97.1979 126.561 96.1059 125.483 94.2159 125.483C92.2139 125.483 91.0379 126.897 91.0379 129.235C91.0379 131.545 92.2279 132.819 94.2299 132.819C95.6439 132.819 96.6659 132.147 97.1559 130.873L96.1759 130.439C95.8679 131.293 95.2099 131.769 94.3139 131.769C93.0679 131.769 92.2419 130.873 92.2279 129.501H97.1979V128.661ZM95.9939 128.535H92.2279C92.2559 127.219 92.9559 126.421 94.1879 126.421C95.3359 126.421 95.9939 127.093 95.9939 128.381V128.535ZM101.54 132.819C103.108 132.819 104.158 131.895 104.41 130.299L103.276 130.117C103.094 131.209 102.506 131.783 101.554 131.783C100.308 131.783 99.5801 130.817 99.5801 129.137C99.5801 127.499 100.308 126.519 101.512 126.519C102.464 126.519 103.08 127.107 103.206 128.171L104.424 128.031C104.242 126.421 103.178 125.483 101.54 125.483C99.5521 125.483 98.3201 126.869 98.3201 129.151C98.3201 131.391 99.5801 132.819 101.54 132.819ZM108.293 132.819C109.273 132.819 110.141 132.189 110.463 131.335V132.651H111.583V125.651H110.393V129.417C110.393 130.845 109.637 131.797 108.517 131.797C107.593 131.797 107.089 131.153 107.089 129.977V125.651H105.899V130.117C105.899 131.755 106.529 132.819 108.293 132.819ZM112.847 126.631H114.149V130.551C114.149 131.853 114.541 132.777 116.053 132.777C116.501 132.777 116.781 132.735 117.089 132.651V131.559C116.851 131.615 116.669 131.657 116.361 131.657C115.647 131.657 115.339 131.307 115.339 130.509V126.631H117.089V125.651H115.339V123.313L114.149 123.817V125.651H112.847V126.631ZM118.539 124.349H119.897V122.851H118.539V124.349ZM118.623 132.651H119.813V125.651H118.623V132.651ZM123.532 132.651H124.806L127.34 125.651H126.052L124.484 130.369C124.358 130.747 124.26 131.111 124.19 131.433H124.148C124.078 131.111 123.98 130.747 123.854 130.369L122.286 125.651H120.998L123.532 132.651ZM133.85 128.661C133.85 126.561 132.758 125.483 130.868 125.483C128.866 125.483 127.69 126.897 127.69 129.235C127.69 131.545 128.88 132.819 130.882 132.819C132.296 132.819 133.318 132.147 133.808 130.873L132.828 130.439C132.52 131.293 131.862 131.769 130.966 131.769C129.72 131.769 128.894 130.873 128.88 129.501H133.85V128.661ZM132.646 128.535H128.88C128.908 127.219 129.608 126.421 130.84 126.421C131.988 126.421 132.646 127.093 132.646 128.381V128.535ZM145.483 122.711H137.909V123.831H141.031V132.651H142.361V123.831H145.483V122.711ZM151.212 128.661C151.212 126.561 150.12 125.483 148.23 125.483C146.228 125.483 145.052 126.897 145.052 129.235C145.052 131.545 146.242 132.819 148.244 132.819C149.658 132.819 150.68 132.147 151.17 130.873L150.19 130.439C149.882 131.293 149.224 131.769 148.328 131.769C147.082 131.769 146.256 130.873 146.242 129.501H151.212V128.661ZM150.008 128.535H146.242C146.27 127.219 146.97 126.421 148.202 126.421C149.35 126.421 150.008 127.093 150.008 128.381V128.535ZM154.632 132.819C155.78 132.819 156.662 132.273 156.984 131.377C156.998 131.825 157.04 132.287 157.096 132.651H158.342C158.174 132.105 158.104 131.363 158.104 130.285V128.395C158.104 126.351 157.264 125.483 155.346 125.483C153.708 125.483 152.588 126.421 152.49 127.849H153.764C153.82 126.967 154.408 126.463 155.36 126.463C156.438 126.463 156.9 126.981 156.9 128.269V128.381L155.598 128.535C154.45 128.675 153.778 128.843 153.246 129.109C152.616 129.459 152.266 130.061 152.266 130.761C152.266 132.007 153.204 132.819 154.632 132.819ZM154.898 131.839C154.044 131.839 153.526 131.419 153.526 130.733C153.526 130.047 153.974 129.683 155.01 129.529L156.914 129.249V129.599C156.914 130.957 156.116 131.839 154.898 131.839ZM160.233 125.651V132.651H161.423V128.563C161.423 127.289 162.025 126.505 163.005 126.505C163.845 126.505 164.321 127.079 164.321 128.101V132.651H165.511V128.507C165.511 127.233 166.085 126.505 167.079 126.505C167.961 126.505 168.409 127.065 168.409 128.157V132.651H169.599V128.059C169.599 126.421 168.815 125.455 167.471 125.455C166.519 125.455 165.805 125.931 165.343 126.883C165.021 125.959 164.321 125.455 163.355 125.455C162.417 125.455 161.745 125.931 161.353 126.869V125.651H160.233Z" fill="#232722"></path><path d="M274.386 129.851C274.386 128.185 273.462 127.317 271.376 126.841L270.774 126.701V124.349C271.6 124.517 272.216 124.993 272.65 125.763L274.162 124.531C273.378 123.453 272.244 122.837 270.774 122.725V121.451H269.85V122.725C267.792 122.851 266.518 123.859 266.518 125.441C266.518 126.897 267.456 127.849 269.318 128.269L269.85 128.395V131.167C268.898 131.013 268.184 130.495 267.666 129.529L265.972 130.691C266.63 131.965 268.016 132.749 269.85 132.861V134.149H270.774V132.861C272.986 132.707 274.386 131.559 274.386 129.851ZM268.52 125.343C268.52 124.713 269.024 124.363 269.85 124.307V126.491C268.856 126.225 268.52 125.903 268.52 125.343ZM270.774 131.195V128.605C271.88 128.885 272.314 129.221 272.314 129.963C272.314 130.677 271.726 131.111 270.774 131.195ZM278.492 122.711C276.21 122.711 274.796 124.083 274.796 126.043C274.796 127.961 276.084 129.193 278.072 129.193C278.982 129.193 279.794 128.871 280.256 128.157C280.242 130.005 279.682 131.111 278.548 131.111C277.736 131.111 277.246 130.635 277.078 129.879L274.95 130.257C275.23 131.951 276.504 132.861 278.436 132.861C281.166 132.861 282.412 130.859 282.412 127.625C282.412 124.377 281.026 122.711 278.492 122.711ZM278.492 127.555C277.582 127.555 276.952 126.897 276.952 125.973C276.952 125.007 277.568 124.363 278.52 124.363C279.682 124.363 280.186 125.245 280.242 126.281C279.962 127.051 279.248 127.555 278.492 127.555ZM283.021 132.651H290.357V130.859H286.101C287.081 130.313 287.879 129.767 288.523 129.207C289.699 128.157 290.273 127.051 290.273 125.749C290.273 123.817 288.957 122.711 286.717 122.711C284.435 122.711 283.007 123.887 283.007 125.707C283.007 125.945 283.035 126.211 283.091 126.463L285.387 126.687C285.331 126.393 285.289 126.127 285.289 125.889C285.289 125.021 285.779 124.489 286.605 124.489C287.417 124.489 287.865 124.993 287.865 125.917C287.865 126.869 287.487 127.597 286.535 128.479C285.681 129.277 284.477 130.117 283.021 130.999V132.651ZM296.95 127.275C297.986 126.897 298.476 126.211 298.476 125.189C298.476 123.677 297.048 122.711 294.836 122.711C292.666 122.711 291.224 123.789 291.224 125.413C291.224 126.519 291.714 127.275 292.806 127.779C291.518 128.171 290.944 128.913 290.944 130.117C290.944 131.769 292.512 132.861 294.906 132.861C297.328 132.861 298.91 131.699 298.91 129.949C298.91 128.633 298.308 127.793 296.95 127.275ZM294.836 124.237C295.774 124.237 296.32 124.713 296.32 125.511C296.32 126.127 296.082 126.547 295.48 126.855L294.934 126.715C293.856 126.449 293.394 126.043 293.394 125.413C293.394 124.671 293.94 124.237 294.836 124.237ZM294.948 131.209C293.926 131.209 293.24 130.649 293.24 129.809C293.24 129.081 293.548 128.605 294.304 128.255L295.06 128.451C296.152 128.745 296.614 129.193 296.614 129.893C296.614 130.691 295.97 131.209 294.948 131.209ZM302.231 130.355H299.837V132.651H302.231V130.355ZM303.555 132.651H310.891V130.859H306.635C307.615 130.313 308.413 129.767 309.057 129.207C310.233 128.157 310.807 127.051 310.807 125.749C310.807 123.817 309.491 122.711 307.251 122.711C304.969 122.711 303.541 123.887 303.541 125.707C303.541 125.945 303.569 126.211 303.625 126.463L305.921 126.687C305.865 126.393 305.823 126.127 305.823 125.889C305.823 125.021 306.313 124.489 307.139 124.489C307.951 124.489 308.399 124.993 308.399 125.917C308.399 126.869 308.021 127.597 307.069 128.479C306.215 129.277 305.011 130.117 303.555 130.999V132.651ZM315.586 132.861C318.232 132.861 319.786 130.985 319.786 127.793C319.786 124.587 318.232 122.711 315.586 122.711C312.954 122.711 311.4 124.587 311.4 127.793C311.4 130.985 312.954 132.861 315.586 132.861ZM315.586 131.111C314.396 131.111 313.724 129.963 313.724 127.793C313.724 125.609 314.396 124.461 315.586 124.461C316.79 124.461 317.462 125.609 317.462 127.793C317.462 129.963 316.79 131.111 315.586 131.111Z" fill="#232722"></path><circle cx="52.7358" cy="126.906" r="14.0329" fill="#FFD392"></circle><path d="M58.3836 132.393H60.8602V128.43L58.8789 127.439L57.3929 123.477H52.935V132.393H54.4209" stroke="black" stroke-miterlimit="10"></path><path d="M56.4022 134.374C57.4965 134.374 58.3835 133.487 58.3835 132.393C58.3835 131.298 57.4965 130.411 56.4022 130.411C55.308 130.411 54.4209 131.298 54.4209 132.393C54.4209 133.487 55.308 134.374 56.4022 134.374Z" stroke="black" stroke-miterlimit="10"></path><path d="M54.9161 125.458V127.439H56.8975" stroke="black" stroke-miterlimit="10"></path><path d="M50.9535 123.477H46.9908" stroke="black" stroke-miterlimit="10"></path><path d="M46 121H52.9346V123.477" stroke="black" stroke-miterlimit="10"></path><path d="M50.9535 125.953H47.9816" stroke="black" stroke-miterlimit="10"></path><path d="M50.9536 128.43H48.9723" stroke="black" stroke-miterlimit="10"></path><path d="M76.9974 171.737H82.9194V170.617H78.3274V161.797H76.9974V171.737ZM86.7443 171.905C88.7183 171.905 90.0063 170.519 90.0063 168.237C90.0063 165.955 88.7183 164.569 86.7443 164.569C84.7703 164.569 83.4823 165.955 83.4823 168.237C83.4823 170.519 84.7703 171.905 86.7443 171.905ZM86.7443 170.869C85.4843 170.869 84.7423 169.973 84.7423 168.237C84.7423 166.501 85.4843 165.605 86.7443 165.605C88.0043 165.605 88.7463 166.501 88.7463 168.237C88.7463 169.973 88.0043 170.869 86.7443 170.869ZM94.2716 171.905C95.8396 171.905 96.8896 170.981 97.1416 169.385L96.0076 169.203C95.8256 170.295 95.2376 170.869 94.2856 170.869C93.0396 170.869 92.3116 169.903 92.3116 168.223C92.3116 166.585 93.0396 165.605 94.2436 165.605C95.1956 165.605 95.8116 166.193 95.9376 167.257L97.1556 167.117C96.9736 165.507 95.9096 164.569 94.2716 164.569C92.2836 164.569 91.0516 165.955 91.0516 168.237C91.0516 170.477 92.3116 171.905 94.2716 171.905ZM100.508 171.905C101.656 171.905 102.538 171.359 102.86 170.463C102.874 170.911 102.916 171.373 102.972 171.737H104.218C104.05 171.191 103.98 170.449 103.98 169.371V167.481C103.98 165.437 103.14 164.569 101.222 164.569C99.5843 164.569 98.4643 165.507 98.3663 166.935H99.6403C99.6963 166.053 100.284 165.549 101.236 165.549C102.314 165.549 102.776 166.067 102.776 167.355V167.467L101.474 167.621C100.326 167.761 99.6543 167.929 99.1223 168.195C98.4923 168.545 98.1423 169.147 98.1423 169.847C98.1423 171.093 99.0803 171.905 100.508 171.905ZM100.774 170.925C99.9203 170.925 99.4023 170.505 99.4023 169.819C99.4023 169.133 99.8503 168.769 100.886 168.615L102.79 168.335V168.685C102.79 170.043 101.992 170.925 100.774 170.925ZM104.786 165.717H106.088V169.637C106.088 170.939 106.48 171.863 107.992 171.863C108.44 171.863 108.72 171.821 109.028 171.737V170.645C108.79 170.701 108.608 170.743 108.3 170.743C107.586 170.743 107.278 170.393 107.278 169.595V165.717H109.028V164.737H107.278V162.399L106.088 162.903V164.737H104.786V165.717ZM110.477 163.435H111.835V161.937H110.477V163.435ZM110.561 171.737H111.751V164.737H110.561V171.737ZM116.688 171.905C118.662 171.905 119.95 170.519 119.95 168.237C119.95 165.955 118.662 164.569 116.688 164.569C114.714 164.569 113.426 165.955 113.426 168.237C113.426 170.519 114.714 171.905 116.688 171.905ZM116.688 170.869C115.428 170.869 114.686 169.973 114.686 168.237C114.686 166.501 115.428 165.605 116.688 165.605C117.948 165.605 118.69 166.501 118.69 168.237C118.69 169.973 117.948 170.869 116.688 170.869ZM121.626 171.737H122.816V168.083C122.816 166.529 123.53 165.591 124.692 165.591C125.714 165.591 126.232 166.221 126.232 167.453V171.737H127.422V167.383C127.422 165.507 126.624 164.541 125.084 164.541C123.978 164.541 123.208 165.059 122.746 166.123V164.737H121.626V171.737ZM139.39 165.829V164.863H137.962L138.494 162.007H137.388L136.856 164.863H135.078L135.61 162.007H134.504L133.972 164.863H132.39V165.829H133.79L133.412 167.915H131.83V168.881H133.23L132.698 171.737H133.804L134.336 168.881H136.114L135.582 171.737H136.688L137.22 168.881H138.914V167.915H137.402L137.78 165.829H139.39ZM136.296 167.915H134.518L134.896 165.829H136.674L136.296 167.915ZM139.804 171.737H146.188V170.603H141.498C142.45 169.945 143.136 169.385 143.892 168.685C145.39 167.299 146.076 166.109 146.076 164.737C146.076 162.847 144.942 161.797 143.052 161.797C141.092 161.797 139.916 162.903 139.916 164.625C139.916 164.877 139.944 165.129 140.014 165.409L141.274 165.535C141.204 165.185 141.162 164.891 141.162 164.639C141.162 163.575 141.848 162.889 142.982 162.889C144.102 162.889 144.76 163.561 144.76 164.751C144.76 165.913 144.34 166.725 143.108 167.915C141.862 169.105 140.602 170.113 139.804 170.701V171.737Z" fill="#232722"></path><path d="M274.386 168.937C274.386 167.271 273.462 166.403 271.376 165.927L270.774 165.787V163.435C271.6 163.603 272.216 164.079 272.65 164.849L274.162 163.617C273.378 162.539 272.244 161.923 270.774 161.811V160.537H269.85V161.811C267.792 161.937 266.518 162.945 266.518 164.527C266.518 165.983 267.456 166.935 269.318 167.355L269.85 167.481V170.253C268.898 170.099 268.184 169.581 267.666 168.615L265.972 169.777C266.63 171.051 268.016 171.835 269.85 171.947V173.235H270.774V171.947C272.986 171.793 274.386 170.645 274.386 168.937ZM268.52 164.429C268.52 163.799 269.024 163.449 269.85 163.393V165.577C268.856 165.311 268.52 164.989 268.52 164.429ZM270.774 170.281V167.691C271.88 167.971 272.314 168.307 272.314 169.049C272.314 169.763 271.726 170.197 270.774 170.281ZM283.088 169.595V167.943H281.632V162.007H279.14L274.926 168.069V169.595H279.406V171.737H281.632V169.595H283.088ZM279.49 165.143V167.943H276.9C277.096 167.733 277.264 167.509 277.544 167.103L278.93 165.059C279.196 164.653 279.364 164.387 279.49 164.065H279.518C279.49 164.415 279.49 164.639 279.49 165.143ZM285.036 171.737H287.291V162.007H285.456C285.065 163.071 284.392 163.519 283.216 163.561H282.95V165.591H283.342C284 165.591 284.659 165.409 285.036 165.059V171.737ZM296.736 169.595V167.943H295.28V162.007H292.788L288.574 168.069V169.595H293.054V171.737H295.28V169.595H296.736ZM293.138 165.143V167.943H290.548C290.744 167.733 290.912 167.509 291.192 167.103L292.578 165.059C292.844 164.653 293.012 164.387 293.138 164.065H293.166C293.138 164.415 293.138 164.639 293.138 165.143ZM299.866 169.441H297.472V171.737H299.866V169.441ZM301.355 171.737H303.819V171.387C303.819 168.335 304.953 165.885 307.011 163.743V162.007H300.025V163.883H304.771C302.657 166.109 301.355 168.783 301.355 171.569V171.737ZM310.897 171.947C313.235 171.947 314.649 170.589 314.649 168.419C314.649 166.333 313.487 165.059 311.555 165.059C310.589 165.059 309.847 165.395 309.413 166.025L309.679 163.799H314.145V162.007H308.027L307.425 167.663L309.441 167.859C309.651 167.117 310.169 166.697 310.925 166.697C311.863 166.697 312.409 167.411 312.409 168.489C312.409 169.553 311.849 170.183 310.883 170.183C310.085 170.183 309.567 169.679 309.413 168.895L307.215 169.245C307.495 170.925 308.881 171.947 310.897 171.947Z" fill="#232722"></path><circle cx="52.7358" cy="165.992" r="14.0329" fill="#E5E1E1"></circle><path d="M58.3836 171.393H60.8602V167.43L58.8789 166.439L57.3929 162.477H52.935V171.393H54.4209" stroke="black" stroke-miterlimit="10"></path><path d="M56.4022 173.374C57.4965 173.374 58.3835 172.487 58.3835 171.393C58.3835 170.298 57.4965 169.411 56.4022 169.411C55.308 169.411 54.4209 170.298 54.4209 171.393C54.4209 172.487 55.308 173.374 56.4022 173.374Z" stroke="black" stroke-miterlimit="10"></path><path d="M54.9161 164.458V166.439H56.8975" stroke="black" stroke-miterlimit="10"></path><path d="M50.9535 162.477H46.9908" stroke="black" stroke-miterlimit="10"></path><path d="M46 160H52.9346V162.477" stroke="black" stroke-miterlimit="10"></path><path d="M50.9535 164.953H47.9816" stroke="black" stroke-miterlimit="10"></path><path d="M50.9536 167.43H48.9723" stroke="black" stroke-miterlimit="10"></path><mask id="mask0_1_1147" style="mask-type:alpha" maskUnits="userSpaceOnUse" x="359" y="38" width="134" height="134"><circle cx="425.957" cy="105.108" r="61.6287" stroke="#E7E8EA" stroke-width="10"></circle></mask><g mask="url(#mask0_1_1147)"><circle cx="425.957" cy="105.108" r="61.6287" stroke="#E5E1E1" stroke-width="10"></circle><path d="M378.012 41.0884L404.254 75.3305L425.906 136.127L396.073 189.816L372.046 173.691L340.709 72.9505L378.012 41.0884Z" fill="#FFD391"></path><path d="M395.293 99.8053L422.082 136.808L380.153 162.597L318.226 122.127L353.051 82.5242L395.293 99.8053Z" fill="#BEE7F3"></path><path d="M425.443 105.886V31.3858L455.237 25.3634L500.26 64.6032V175.65L434.016 189.091L372.892 166.689L425.443 105.886Z" fill="#7991F9"></path></g><defs><filter id="filter0_d_1_1147" x="0" y="0" width="530" height="275" color-interpolation-filters="sRGB"><feFlood flood-opacity="0" result="BackgroundImageFix"></feFlood><feColorMatrix in="SourceAlpha" type="matrix" values="0 0 0 0 0 0 0 0 0 0 0 0 0 0 0 0 0 0 127 0" result="hardAlpha"></feColorMatrix><feOffset dy="4"></feOffset><feGaussianBlur stdDeviation="6.5"></feGaussianBlur><feColorMatrix type="matrix" values="0 0 0 0 0 0 0 0 0 0 0 0 0 0 0 0 0 0 0.26 0"></feColorMatrix><feBlend mode="normal" in2="BackgroundImageFix" result="effect1_dropShadow_1_1147"></feBlend><feBlend mode="normal" in="SourceGraphic" in2="effect1_dropShadow_1_1147" result="shape"></feBlend></filter></defs></svg> 