<?xml version="1.0" encoding="UTF-8"?> <svg xmlns="http://www.w3.org/2000/svg" width="566" height="275" viewBox="0 0 566 275" fill="none"><rect width="566" height="275" fill="white"></rect><g filter="url(#filter0_d_1_1146)"><rect x="13" y="9" width="539.256" height="248.008" rx="5" fill="white"></rect></g><rect x="38.8635" y="199.937" width="485.029" height="32.5297" rx="5" fill="#F1A99B" fill-opacity="0.4"></rect><rect opacity="0.8" x="380" y="209" width="130" height="15" fill="#F1A99B"></rect><circle cx="58.1474" cy="216.226" r="8.45498" fill="#F1A99B"></circle><path d="M57.5187 217.461H58.7934L59.0622 212.551H57.2498L57.5187 217.461ZM59.0224 218.248H57.2896V219.771H59.0224V218.248Z" fill="#232722"></path><path d="M84.1411 212.206H77.6491V213.166H80.3251V220.726H81.4651V213.166H84.1411V212.206ZM85.2156 220.726H86.2356V217.594C86.2356 216.238 86.8236 215.458 87.8556 215.458C88.7196 215.458 89.1636 216.01 89.1636 217.066V220.726H90.1836V216.994C90.1836 215.398 89.4996 214.558 88.2036 214.558C87.2676 214.558 86.5956 215.002 86.2356 215.854V212.026H85.2156V220.726ZM91.9114 213.61H93.0754V212.326H91.9114V213.61ZM91.9834 220.726H93.0034V214.726H91.9834V220.726ZM96.9712 220.87C98.4352 220.87 99.2752 220.174 99.2752 219.034C99.2752 218.086 98.8072 217.462 97.6192 217.33L96.6592 217.222C95.9152 217.138 95.5792 216.826 95.5792 216.31C95.5792 215.734 96.0472 215.41 96.8392 215.41C97.6552 215.41 98.1472 215.914 98.2792 216.634L99.2872 216.406C99.1552 215.302 98.2312 214.582 96.8632 214.582C95.4472 214.582 94.5832 215.266 94.5832 216.358C94.5832 217.282 95.1472 217.954 96.3352 218.086L97.3072 218.194C97.9552 218.266 98.2672 218.53 98.2672 219.13C98.2672 219.694 97.8232 220.03 97.0192 220.03C96.1312 220.03 95.5672 219.574 95.4112 218.698L94.3792 218.878C94.5952 220.162 95.5432 220.87 96.9712 220.87ZM102.766 215.566H103.882V218.926C103.882 220.042 104.218 220.834 105.514 220.834C105.898 220.834 106.138 220.798 106.402 220.726V219.79C106.198 219.838 106.042 219.874 105.778 219.874C105.166 219.874 104.902 219.574 104.902 218.89V215.566H106.402V214.726H104.902V212.722L103.882 213.154V214.726H102.766V215.566ZM108.665 216.094V214.726H107.717V220.726H108.737V218.158C108.737 217.438 108.761 216.634 109.337 216.058C109.625 215.77 110.033 215.59 110.657 215.59H110.705V214.594C110.633 214.582 110.561 214.582 110.489 214.582C109.577 214.582 108.953 215.254 108.665 216.094ZM113.22 220.87C114.204 220.87 114.96 220.402 115.236 219.634C115.248 220.018 115.284 220.414 115.332 220.726H116.4C116.256 220.258 116.196 219.622 116.196 218.698V217.078C116.196 215.326 115.476 214.582 113.832 214.582C112.428 214.582 111.468 215.386 111.384 216.61H112.476C112.524 215.854 113.028 215.422 113.844 215.422C114.768 215.422 115.164 215.866 115.164 216.97V217.066L114.048 217.198C113.064 217.318 112.488 217.462 112.032 217.69C111.492 217.99 111.192 218.506 111.192 219.106C111.192 220.174 111.996 220.87 113.22 220.87ZM113.448 220.03C112.716 220.03 112.272 219.67 112.272 219.082C112.272 218.494 112.656 218.182 113.544 218.05L115.176 217.81V218.11C115.176 219.274 114.492 220.03 113.448 220.03ZM118.021 220.726H119.041V217.594C119.041 216.262 119.653 215.458 120.649 215.458C121.525 215.458 121.969 215.998 121.969 217.054V220.726H122.989V216.994C122.989 215.386 122.305 214.558 120.985 214.558C120.037 214.558 119.377 215.002 118.981 215.914V214.726H118.021V220.726ZM126.782 220.87C128.246 220.87 129.086 220.174 129.086 219.034C129.086 218.086 128.618 217.462 127.43 217.33L126.47 217.222C125.726 217.138 125.39 216.826 125.39 216.31C125.39 215.734 125.858 215.41 126.65 215.41C127.466 215.41 127.958 215.914 128.09 216.634L129.098 216.406C128.966 215.302 128.042 214.582 126.674 214.582C125.258 214.582 124.394 215.266 124.394 216.358C124.394 217.282 124.958 217.954 126.146 218.086L127.118 218.194C127.766 218.266 128.078 218.53 128.078 219.13C128.078 219.694 127.634 220.03 126.83 220.03C125.942 220.03 125.378 219.574 125.222 218.698L124.19 218.878C124.406 220.162 125.354 220.87 126.782 220.87ZM132.028 220.87C133.012 220.87 133.768 220.402 134.044 219.634C134.056 220.018 134.092 220.414 134.14 220.726H135.208C135.064 220.258 135.004 219.622 135.004 218.698V217.078C135.004 215.326 134.284 214.582 132.64 214.582C131.236 214.582 130.276 215.386 130.192 216.61H131.284C131.332 215.854 131.836 215.422 132.652 215.422C133.576 215.422 133.972 215.866 133.972 216.97V217.066L132.856 217.198C131.872 217.318 131.296 217.462 130.84 217.69C130.3 217.99 130 218.506 130 219.106C130 220.174 130.804 220.87 132.028 220.87ZM132.256 220.03C131.524 220.03 131.08 219.67 131.08 219.082C131.08 218.494 131.464 218.182 132.352 218.05L133.984 217.81V218.11C133.984 219.274 133.3 220.03 132.256 220.03ZM138.99 220.87C140.334 220.87 141.234 220.078 141.45 218.71L140.478 218.554C140.322 219.49 139.818 219.982 139.002 219.982C137.934 219.982 137.31 219.154 137.31 217.714C137.31 216.31 137.934 215.47 138.966 215.47C139.782 215.47 140.31 215.974 140.418 216.886L141.462 216.766C141.306 215.386 140.394 214.582 138.99 214.582C137.286 214.582 136.23 215.77 136.23 217.726C136.23 219.646 137.31 220.87 138.99 220.87ZM141.83 215.566H142.946V218.926C142.946 220.042 143.282 220.834 144.578 220.834C144.962 220.834 145.202 220.798 145.466 220.726V219.79C145.262 219.838 145.106 219.874 144.842 219.874C144.23 219.874 143.966 219.574 143.966 218.89V215.566H145.466V214.726H143.966V212.722L142.946 213.154V214.726H141.83V215.566ZM146.709 213.61H147.873V212.326H146.709V213.61ZM146.781 220.726H147.801V214.726H146.781V220.726ZM152.033 220.87C153.725 220.87 154.829 219.682 154.829 217.726C154.829 215.77 153.725 214.582 152.033 214.582C150.341 214.582 149.237 215.77 149.237 217.726C149.237 219.682 150.341 220.87 152.033 220.87ZM152.033 219.982C150.953 219.982 150.317 219.214 150.317 217.726C150.317 216.238 150.953 215.47 152.033 215.47C153.113 215.47 153.749 216.238 153.749 217.726C153.749 219.214 153.113 219.982 152.033 219.982ZM156.265 220.726H157.285V217.594C157.285 216.262 157.897 215.458 158.893 215.458C159.769 215.458 160.213 215.998 160.213 217.054V220.726H161.233V216.994C161.233 215.386 160.549 214.558 159.229 214.558C158.281 214.558 157.621 215.002 157.225 215.914V214.726H156.265V220.726ZM166.883 220.726H167.999L169.139 216.406C169.187 216.214 169.247 215.914 169.271 215.734H169.295C169.319 215.914 169.379 216.214 169.427 216.406L170.567 220.726H171.683L173.375 214.726H172.319L171.239 219.01C171.191 219.226 171.143 219.478 171.107 219.718H171.083C171.047 219.478 170.975 219.226 170.927 219.01L169.835 214.726H168.731L167.639 219.01C167.591 219.226 167.519 219.478 167.483 219.718H167.459C167.423 219.478 167.375 219.226 167.327 219.01L166.247 214.726H165.191L166.883 220.726ZM175.892 220.87C176.876 220.87 177.632 220.402 177.908 219.634C177.92 220.018 177.956 220.414 178.004 220.726H179.072C178.928 220.258 178.868 219.622 178.868 218.698V217.078C178.868 215.326 178.148 214.582 176.504 214.582C175.1 214.582 174.14 215.386 174.056 216.61H175.148C175.196 215.854 175.7 215.422 176.516 215.422C177.44 215.422 177.836 215.866 177.836 216.97V217.066L176.72 217.198C175.736 217.318 175.16 217.462 174.704 217.69C174.164 217.99 173.864 218.506 173.864 219.106C173.864 220.174 174.668 220.87 175.892 220.87ZM176.12 220.03C175.388 220.03 174.944 219.67 174.944 219.082C174.944 218.494 175.328 218.182 176.216 218.05L177.848 217.81V218.11C177.848 219.274 177.164 220.03 176.12 220.03ZM182.685 220.87C184.149 220.87 184.989 220.174 184.989 219.034C184.989 218.086 184.521 217.462 183.333 217.33L182.373 217.222C181.629 217.138 181.293 216.826 181.293 216.31C181.293 215.734 181.761 215.41 182.553 215.41C183.369 215.41 183.861 215.914 183.993 216.634L185.001 216.406C184.869 215.302 183.945 214.582 182.577 214.582C181.161 214.582 180.297 215.266 180.297 216.358C180.297 217.282 180.861 217.954 182.049 218.086L183.021 218.194C183.669 218.266 183.981 218.53 183.981 219.13C183.981 219.694 183.537 220.03 182.733 220.03C181.845 220.03 181.281 219.574 181.125 218.698L180.093 218.878C180.309 220.162 181.257 220.87 182.685 220.87ZM191.276 220.87C192.212 220.87 192.86 220.414 193.22 219.61V220.726H194.18V212.026H193.16V215.614C192.776 214.906 192.188 214.582 191.396 214.582C189.896 214.582 188.84 215.878 188.84 217.726C188.84 219.61 189.824 220.87 191.276 220.87ZM191.552 219.97C190.532 219.97 189.92 219.13 189.92 217.726C189.92 216.31 190.532 215.482 191.552 215.482C192.56 215.482 193.184 216.286 193.184 217.594V217.87C193.184 219.154 192.548 219.97 191.552 219.97ZM200.959 217.306C200.959 215.506 200.023 214.582 198.403 214.582C196.687 214.582 195.679 215.794 195.679 217.798C195.679 219.778 196.699 220.87 198.415 220.87C199.627 220.87 200.503 220.294 200.923 219.202L200.083 218.83C199.819 219.562 199.255 219.97 198.487 219.97C197.419 219.97 196.711 219.202 196.699 218.026H200.959V217.306ZM199.927 217.198H196.699C196.723 216.07 197.323 215.386 198.379 215.386C199.363 215.386 199.927 215.962 199.927 217.066V217.198ZM204.681 220.87C206.025 220.87 206.925 220.078 207.141 218.71L206.169 218.554C206.013 219.49 205.509 219.982 204.693 219.982C203.625 219.982 203.001 219.154 203.001 217.714C203.001 216.31 203.625 215.47 204.657 215.47C205.473 215.47 206.001 215.974 206.109 216.886L207.153 216.766C206.997 215.386 206.085 214.582 204.681 214.582C202.977 214.582 201.921 215.77 201.921 217.726C201.921 219.646 203.001 220.87 204.681 220.87ZM209.678 212.026H208.658V220.726H209.678V212.026ZM211.65 213.61H212.814V212.326H211.65V213.61ZM211.722 220.726H212.742V214.726H211.722V220.726ZM214.718 220.726H215.738V217.594C215.738 216.262 216.35 215.458 217.346 215.458C218.222 215.458 218.666 215.998 218.666 217.054V220.726H219.686V216.994C219.686 215.386 219.002 214.558 217.682 214.558C216.734 214.558 216.074 215.002 215.678 215.914V214.726H214.718V220.726ZM226.227 217.306C226.227 215.506 225.291 214.582 223.671 214.582C221.955 214.582 220.947 215.794 220.947 217.798C220.947 219.778 221.967 220.87 223.683 220.87C224.895 220.87 225.771 220.294 226.191 219.202L225.351 218.83C225.087 219.562 224.523 219.97 223.755 219.97C222.687 219.97 221.979 219.202 221.967 218.026H226.227V217.306ZM225.195 217.198H221.967C221.991 216.07 222.591 215.386 223.647 215.386C224.631 215.386 225.195 215.962 225.195 217.066V217.198ZM229.625 220.87C230.561 220.87 231.209 220.414 231.569 219.61V220.726H232.529V212.026H231.509V215.614C231.125 214.906 230.537 214.582 229.745 214.582C228.245 214.582 227.189 215.878 227.189 217.726C227.189 219.61 228.173 220.87 229.625 220.87ZM229.901 219.97C228.881 219.97 228.269 219.13 228.269 217.726C228.269 216.31 228.881 215.482 229.901 215.482C230.909 215.482 231.533 216.286 231.533 217.594V217.87C231.533 219.154 230.897 219.97 229.901 219.97ZM239.402 220.87C240.338 220.87 240.986 220.414 241.346 219.61V220.726H242.306V212.026H241.286V215.614C240.902 214.906 240.314 214.582 239.522 214.582C238.022 214.582 236.966 215.878 236.966 217.726C236.966 219.61 237.95 220.87 239.402 220.87ZM239.678 219.97C238.658 219.97 238.046 219.13 238.046 217.726C238.046 216.31 238.658 215.482 239.678 215.482C240.686 215.482 241.31 216.286 241.31 217.594V217.87C241.31 219.154 240.674 219.97 239.678 219.97ZM246.217 220.87C247.057 220.87 247.801 220.33 248.077 219.598V220.726H249.037V214.726H248.017V217.954C248.017 219.178 247.369 219.994 246.409 219.994C245.617 219.994 245.185 219.442 245.185 218.434V214.726H244.165V218.554C244.165 219.958 244.705 220.87 246.217 220.87ZM255.761 217.306C255.761 215.506 254.825 214.582 253.205 214.582C251.489 214.582 250.481 215.794 250.481 217.798C250.481 219.778 251.501 220.87 253.217 220.87C254.429 220.87 255.305 220.294 255.725 219.202L254.885 218.83C254.621 219.562 254.057 219.97 253.289 219.97C252.221 219.97 251.513 219.202 251.501 218.026H255.761V217.306ZM254.729 217.198H251.501C251.525 216.07 252.125 215.386 253.181 215.386C254.165 215.386 254.729 215.962 254.729 217.066V217.198ZM259.3 215.566H260.416V218.926C260.416 220.042 260.752 220.834 262.048 220.834C262.432 220.834 262.672 220.798 262.936 220.726V219.79C262.732 219.838 262.576 219.874 262.312 219.874C261.7 219.874 261.436 219.574 261.436 218.89V215.566H262.936V214.726H261.436V212.722L260.416 213.154V214.726H259.3V215.566ZM266.272 220.87C267.964 220.87 269.068 219.682 269.068 217.726C269.068 215.77 267.964 214.582 266.272 214.582C264.58 214.582 263.476 215.77 263.476 217.726C263.476 219.682 264.58 220.87 266.272 220.87ZM266.272 219.982C265.192 219.982 264.556 219.214 264.556 217.726C264.556 216.238 265.192 215.47 266.272 215.47C267.352 215.47 267.988 216.238 267.988 217.726C267.988 219.214 267.352 219.982 266.272 219.982ZM272.541 215.566H273.657V218.926C273.657 220.042 273.993 220.834 275.289 220.834C275.673 220.834 275.913 220.798 276.177 220.726V219.79C275.973 219.838 275.817 219.874 275.553 219.874C274.941 219.874 274.677 219.574 274.677 218.89V215.566H276.177V214.726H274.677V212.722L273.657 213.154V214.726H272.541V215.566ZM277.552 220.726H278.572V217.594C278.572 216.238 279.16 215.458 280.192 215.458C281.056 215.458 281.5 216.01 281.5 217.066V220.726H282.52V216.994C282.52 215.398 281.836 214.558 280.54 214.558C279.604 214.558 278.932 215.002 278.572 215.854V212.026H277.552V220.726ZM289.06 217.306C289.06 215.506 288.124 214.582 286.504 214.582C284.788 214.582 283.78 215.794 283.78 217.798C283.78 219.778 284.8 220.87 286.516 220.87C287.728 220.87 288.604 220.294 289.024 219.202L288.184 218.83C287.92 219.562 287.356 219.97 286.588 219.97C285.52 219.97 284.812 219.202 284.8 218.026H289.06V217.306ZM288.028 217.198H284.8C284.824 216.07 285.424 215.386 286.48 215.386C287.464 215.386 288.028 215.962 288.028 217.066V217.198ZM296.283 214.726H294.783V213.922C294.783 213.19 295.035 212.854 295.647 212.854C295.839 212.854 296.067 212.878 296.283 212.914V212.038C296.055 211.978 295.803 211.954 295.515 211.954C294.447 211.954 293.763 212.686 293.763 213.778V214.726H292.659V215.566H293.763V220.726H294.783V215.566H296.283V214.726ZM299.43 220.87C301.122 220.87 302.226 219.682 302.226 217.726C302.226 215.77 301.122 214.582 299.43 214.582C297.738 214.582 296.634 215.77 296.634 217.726C296.634 219.682 297.738 220.87 299.43 220.87ZM299.43 219.982C298.35 219.982 297.714 219.214 297.714 217.726C297.714 216.238 298.35 215.47 299.43 215.47C300.51 215.47 301.146 216.238 301.146 217.726C301.146 219.214 300.51 219.982 299.43 219.982ZM304.742 212.026H303.722V220.726H304.742V212.026ZM307.867 212.026H306.847V220.726H307.867V212.026ZM312.167 220.87C313.859 220.87 314.963 219.682 314.963 217.726C314.963 215.77 313.859 214.582 312.167 214.582C310.475 214.582 309.371 215.77 309.371 217.726C309.371 219.682 310.475 220.87 312.167 220.87ZM312.167 219.982C311.087 219.982 310.451 219.214 310.451 217.726C310.451 216.238 311.087 215.47 312.167 215.47C313.247 215.47 313.883 216.238 313.883 217.726C313.883 219.214 313.247 219.982 312.167 219.982ZM317.311 220.726H318.427L319.567 216.406C319.615 216.214 319.675 215.914 319.699 215.734H319.723C319.747 215.914 319.807 216.214 319.855 216.406L320.995 220.726H322.111L323.803 214.726H322.747L321.667 219.01C321.619 219.226 321.571 219.478 321.535 219.718H321.511C321.475 219.478 321.403 219.226 321.355 219.01L320.263 214.726H319.159L318.067 219.01C318.019 219.226 317.947 219.478 317.911 219.718H317.887C317.851 219.478 317.803 219.226 317.755 219.01L316.675 214.726H315.619L317.311 220.726ZM324.936 213.61H326.1V212.326H324.936V213.61ZM325.008 220.726H326.028V214.726H325.008V220.726ZM328.004 220.726H329.024V217.594C329.024 216.262 329.636 215.458 330.632 215.458C331.508 215.458 331.952 215.998 331.952 217.054V220.726H332.972V216.994C332.972 215.386 332.288 214.558 330.968 214.558C330.02 214.558 329.36 215.002 328.964 215.914V214.726H328.004V220.726ZM339.381 214.63C339.549 214.63 339.693 214.654 339.813 214.678V213.79C339.681 213.754 339.549 213.742 339.417 213.742C338.613 213.742 338.169 214.222 337.989 214.834C337.653 214.678 337.269 214.582 336.813 214.582C335.421 214.582 334.593 215.446 334.593 216.61C334.593 217.198 334.797 217.702 335.181 218.074C334.677 218.266 334.329 218.674 334.329 219.274C334.329 219.706 334.521 220.09 335.025 220.318C334.389 220.522 334.053 221.002 334.053 221.566C334.053 222.418 334.641 223.21 336.753 223.21C338.841 223.21 339.729 222.43 339.729 221.302C339.729 220.222 339.045 219.61 337.689 219.61H336.225C335.481 219.61 335.229 219.334 335.229 218.998C335.229 218.722 335.409 218.518 335.661 218.41C335.985 218.566 336.369 218.662 336.813 218.662C338.205 218.662 339.033 217.774 339.033 216.61C339.033 216.046 338.841 215.554 338.481 215.194C338.625 214.81 338.925 214.63 339.381 214.63ZM336.813 217.882C336.045 217.882 335.553 217.342 335.553 216.61C335.553 215.878 336.045 215.362 336.813 215.362C337.581 215.362 338.073 215.89 338.073 216.622C338.073 217.354 337.581 217.882 336.813 217.882ZM337.461 220.51C338.289 220.51 338.709 220.81 338.709 221.374C338.709 221.914 338.337 222.37 336.873 222.37C335.793 222.37 335.049 222.13 335.049 221.386C335.049 221.026 335.253 220.678 335.685 220.486C335.841 220.498 336.009 220.51 336.189 220.51H337.461ZM343.835 223.066H344.855V219.778C345.119 220.366 345.767 220.87 346.691 220.87C348.143 220.87 349.175 219.646 349.175 217.726C349.175 215.83 348.203 214.582 346.751 214.582C345.875 214.582 345.179 215.014 344.795 215.842V214.726H343.835V223.066ZM346.451 219.97C345.455 219.97 344.831 219.154 344.831 217.858V217.57C344.831 216.274 345.479 215.482 346.487 215.482C347.495 215.482 348.095 216.31 348.095 217.726C348.095 219.13 347.471 219.97 346.451 219.97ZM352.872 220.87C354.564 220.87 355.668 219.682 355.668 217.726C355.668 215.77 354.564 214.582 352.872 214.582C351.18 214.582 350.076 215.77 350.076 217.726C350.076 219.682 351.18 220.87 352.872 220.87ZM352.872 219.982C351.792 219.982 351.156 219.214 351.156 217.726C351.156 216.238 351.792 215.47 352.872 215.47C353.952 215.47 354.588 216.238 354.588 217.726C354.588 219.214 353.952 219.982 352.872 219.982ZM358.184 212.026H357.164V220.726H358.184V212.026ZM360.157 213.61H361.321V212.326H360.157V213.61ZM360.229 220.726H361.249V214.726H360.229V220.726ZM365.445 220.87C366.789 220.87 367.689 220.078 367.905 218.71L366.933 218.554C366.777 219.49 366.273 219.982 365.457 219.982C364.389 219.982 363.765 219.154 363.765 217.714C363.765 216.31 364.389 215.47 365.421 215.47C366.237 215.47 366.765 215.974 366.873 216.886L367.917 216.766C367.761 215.386 366.849 214.582 365.445 214.582C363.741 214.582 362.685 215.77 362.685 217.726C362.685 219.646 363.765 220.87 365.445 220.87ZM369.209 223.138C370.217 223.138 370.937 222.634 371.489 221.11L373.829 214.726H372.725L371.333 218.902C371.237 219.202 371.165 219.442 371.129 219.61H371.105C371.069 219.442 371.009 219.202 370.901 218.902L369.365 214.726H368.225L370.613 220.654L370.457 221.098C370.181 221.89 369.809 222.214 369.089 222.214C368.957 222.214 368.813 222.202 368.657 222.19V223.09C368.849 223.126 369.029 223.138 369.209 223.138Z" fill="#232722"></path><circle cx="511.364" cy="101.435" r="12.5286" fill="#E5E1E1"></circle><path d="M515.58 99.3273L511.364 103.543L507.148 99.3273" stroke="black" stroke-width="1.10393" stroke-linecap="round" stroke-linejoin="round"></path><circle cx="511.364" cy="159.694" r="12.5286" fill="#E5E1E1"></circle><path d="M507.148 161.802L511.364 157.586L515.58 161.802" stroke="black" stroke-width="1.10393" stroke-linecap="round" stroke-linejoin="round"></path><path d="M40.0955 50.7292H43.6515C46.6055 50.7292 48.4955 48.6572 48.4955 45.7172C48.4955 42.7772 46.5915 40.7892 43.6795 40.7892H40.0955V50.7292ZM41.9015 49.3152V42.2032H43.6235C45.5695 42.2032 46.6055 43.7012 46.6055 45.7172C46.6055 47.6912 45.5275 49.3152 43.5955 49.3152H41.9015ZM51.723 50.8972C52.857 50.8972 53.739 50.3792 54.075 49.5252C54.089 49.9592 54.131 50.3792 54.187 50.7292H55.867C55.727 50.2392 55.657 49.5112 55.657 48.5592V46.4732C55.657 44.4432 54.733 43.5612 52.661 43.5612C50.855 43.5612 49.679 44.4852 49.567 45.9832H51.289C51.345 45.1852 51.835 44.7512 52.661 44.7512C53.557 44.7512 53.963 45.1992 53.963 46.2492V46.4312L52.479 46.6132C51.373 46.7672 50.701 46.9492 50.197 47.2432C49.637 47.5932 49.343 48.1532 49.343 48.8252C49.343 50.0712 50.295 50.8972 51.723 50.8972ZM52.269 49.7072C51.527 49.7072 51.079 49.3292 51.079 48.7412C51.079 48.1392 51.499 47.8032 52.423 47.6492L54.005 47.4112V47.8592C54.005 48.9792 53.305 49.7072 52.269 49.7072ZM56.2889 44.9472H57.5489V48.5592C57.5489 49.9732 58.1089 50.8552 59.7889 50.8552C60.2229 50.8552 60.5309 50.8132 60.9369 50.7292V49.3152C60.7129 49.3712 60.5309 49.3992 60.2509 49.3992C59.5509 49.3992 59.2289 49.0492 59.2289 48.2932V44.9472H60.9369V43.7292H59.2289V41.2932L57.5489 41.9652V43.7292H56.2889V44.9472ZM67.9988 46.8792C67.9988 44.7372 66.8368 43.5612 64.8068 43.5612C62.7208 43.5612 61.4608 44.9892 61.4608 47.2992C61.4608 49.5952 62.7488 50.8972 64.8908 50.8972C66.3188 50.8972 67.4248 50.2252 67.9428 49.0072L66.6548 48.4192C66.3328 49.1752 65.7448 49.5812 64.9468 49.5812C63.8408 49.5812 63.0988 48.8252 63.0848 47.6492H67.9988V46.8792ZM66.3468 46.5432H63.0848C63.1128 45.3812 63.7148 44.6812 64.7788 44.6812C65.7728 44.6812 66.3468 45.2832 66.3468 46.4312V46.5432Z" fill="#232722"></path><path d="M118.619 50.7292H120.453L116.757 40.7892H114.797L111.101 50.7292H112.935L113.831 48.1112H117.723L118.619 50.7292ZM114.307 46.7392L115.469 43.3792C115.581 43.0572 115.679 42.7492 115.763 42.3152H115.791C115.875 42.7492 115.973 43.0572 116.085 43.3792L117.247 46.7392H114.307ZM121.604 43.7292V50.7292H123.284V46.6832C123.284 45.5632 123.774 44.9052 124.614 44.9052C125.356 44.9052 125.748 45.4092 125.748 46.3752V50.7292H127.428V46.6412C127.428 45.5212 127.904 44.9052 128.758 44.9052C129.528 44.9052 129.906 45.3952 129.906 46.4172V50.7292H131.586V46.1512C131.586 44.4992 130.788 43.5472 129.444 43.5472C128.464 43.5472 127.736 44.0092 127.26 44.9752C126.924 44.0232 126.252 43.5472 125.272 43.5472C124.292 43.5472 123.62 44.0092 123.2 44.9752V43.7292H121.604ZM136.28 50.8972C138.296 50.8972 139.71 49.5672 139.71 47.2152C139.71 44.8772 138.296 43.5612 136.28 43.5612C134.264 43.5612 132.85 44.8772 132.85 47.2152C132.85 49.5672 134.264 50.8972 136.28 50.8972ZM136.28 49.6232C135.202 49.6232 134.558 48.8112 134.558 47.2152C134.558 45.6192 135.202 44.8352 136.28 44.8352C137.358 44.8352 137.988 45.6192 137.988 47.2152C137.988 48.8112 137.358 49.6232 136.28 49.6232ZM143.356 50.8972C144.364 50.8972 145.204 50.2952 145.54 49.4272V50.7292H147.136V43.7292H145.442V47.6072C145.442 48.7832 144.826 49.5532 143.902 49.5532C143.09 49.5532 142.67 48.9932 142.67 47.9712V43.7292H140.99V48.2232C140.99 49.8612 141.648 50.8972 143.356 50.8972ZM149.151 50.7292H150.831V47.0192C150.831 45.6892 151.419 44.9052 152.399 44.9052C153.281 44.9052 153.701 45.4512 153.701 46.5572V50.7292H155.395V46.3892C155.395 44.5132 154.597 43.5472 153.071 43.5472C151.993 43.5472 151.223 44.0512 150.747 45.0872V43.7292H149.151V50.7292ZM156.137 44.9472H157.397V48.5592C157.397 49.9732 157.957 50.8552 159.637 50.8552C160.071 50.8552 160.379 50.8132 160.785 50.7292V49.3152C160.561 49.3712 160.379 49.3992 160.099 49.3992C159.399 49.3992 159.077 49.0492 159.077 48.2932V44.9472H160.785V43.7292H159.077V41.2932L157.397 41.9652V43.7292H156.137V44.9472Z" fill="#232722"></path><path d="M198.095 50.7292H199.677V43.4772C199.677 43.0712 199.663 42.7212 199.621 42.3852H199.677C199.705 42.6232 199.817 43.1412 199.929 43.4352L202.309 50.7292H203.919L206.271 43.4352C206.369 43.1412 206.495 42.6232 206.523 42.3852H206.565C206.523 42.7352 206.509 43.0852 206.509 43.4772V50.7292H208.161V40.7892H205.627L203.401 47.6912C203.247 48.1812 203.191 48.4052 203.149 48.7692H203.121C203.079 48.4052 203.023 48.1952 202.869 47.7052L200.615 40.7892H198.095V50.7292ZM216.247 46.8792C216.247 44.7372 215.085 43.5612 213.055 43.5612C210.969 43.5612 209.709 44.9892 209.709 47.2992C209.709 49.5952 210.997 50.8972 213.139 50.8972C214.567 50.8972 215.673 50.2252 216.191 49.0072L214.903 48.4192C214.581 49.1752 213.993 49.5812 213.195 49.5812C212.089 49.5812 211.347 48.8252 211.333 47.6492H216.247V46.8792ZM214.595 46.5432H211.333C211.361 45.3812 211.963 44.6812 213.027 44.6812C214.021 44.6812 214.595 45.2832 214.595 46.4312V46.5432ZM219.325 45.4232V43.7292H217.757V50.7292H219.437V47.8032C219.437 47.0192 219.507 46.2212 220.067 45.6752C220.389 45.3672 220.851 45.1852 221.523 45.1852H221.747V43.5752C221.677 43.5612 221.621 43.5612 221.551 43.5612C220.417 43.5612 219.675 44.3172 219.325 45.4232ZM225.598 50.8972C227.264 50.8972 228.44 49.9452 228.692 48.3912L227.11 48.0692C226.956 49.0492 226.438 49.5672 225.598 49.5672C224.52 49.5672 223.89 48.6992 223.89 47.1872C223.89 45.7452 224.534 44.8772 225.57 44.8772C226.396 44.8772 226.942 45.3952 227.054 46.3472L228.692 46.0812C228.482 44.4852 227.348 43.5612 225.612 43.5612C223.484 43.5612 222.168 44.9472 222.168 47.2292C222.168 49.4552 223.512 50.8972 225.598 50.8972ZM230.176 50.7292H231.856V47.0192C231.856 45.6612 232.43 44.8912 233.438 44.8912C234.292 44.8912 234.726 45.4512 234.726 46.5152V50.7292H236.42V46.3752C236.42 44.5132 235.622 43.5332 234.11 43.5332C233.046 43.5332 232.276 44.0372 231.856 45.0172V40.5792H230.176V50.7292ZM240.028 50.8972C241.162 50.8972 242.044 50.3792 242.38 49.5252C242.394 49.9592 242.436 50.3792 242.492 50.7292H244.172C244.032 50.2392 243.962 49.5112 243.962 48.5592V46.4732C243.962 44.4432 243.038 43.5612 240.966 43.5612C239.16 43.5612 237.984 44.4852 237.872 45.9832H239.594C239.65 45.1852 240.14 44.7512 240.966 44.7512C241.862 44.7512 242.268 45.1992 242.268 46.2492V46.4312L240.784 46.6132C239.678 46.7672 239.006 46.9492 238.502 47.2432C237.942 47.5932 237.648 48.1532 237.648 48.8252C237.648 50.0712 238.6 50.8972 240.028 50.8972ZM240.574 49.7072C239.832 49.7072 239.384 49.3292 239.384 48.7412C239.384 48.1392 239.804 47.8032 240.728 47.6492L242.31 47.4112V47.8592C242.31 48.9792 241.61 49.7072 240.574 49.7072ZM245.819 50.7292H247.499V47.0192C247.499 45.6892 248.087 44.9052 249.067 44.9052C249.949 44.9052 250.369 45.4512 250.369 46.5572V50.7292H252.063V46.3892C252.063 44.5132 251.265 43.5472 249.739 43.5472C248.661 43.5472 247.891 44.0512 247.415 45.0872V43.7292H245.819V50.7292ZM252.805 44.9472H254.065V48.5592C254.065 49.9732 254.625 50.8552 256.305 50.8552C256.739 50.8552 257.047 50.8132 257.453 50.7292V49.3152C257.229 49.3712 257.047 49.3992 256.767 49.3992C256.067 49.3992 255.745 49.0492 255.745 48.2932V44.9472H257.453V43.7292H255.745V41.2932L254.065 41.9652V43.7292H252.805V44.9472Z" fill="#232722"></path><path d="M302.043 50.9672C304.465 50.9672 305.823 49.5532 306.243 47.5652L304.451 47.2012C304.199 48.6012 303.331 49.4552 302.057 49.4552C300.237 49.4552 299.257 47.9012 299.257 45.7312C299.257 43.5052 300.265 42.0352 302.015 42.0352C303.387 42.0352 304.213 42.9312 304.381 44.3452L306.229 44.0792C305.963 41.9652 304.549 40.5512 302.071 40.5512C299.089 40.5512 297.395 42.6512 297.395 45.7452C297.395 48.7552 298.921 50.9672 302.043 50.9672ZM309.477 50.8972C310.611 50.8972 311.493 50.3792 311.829 49.5252C311.843 49.9592 311.885 50.3792 311.941 50.7292H313.621C313.481 50.2392 313.411 49.5112 313.411 48.5592V46.4732C313.411 44.4432 312.487 43.5612 310.415 43.5612C308.609 43.5612 307.433 44.4852 307.321 45.9832H309.043C309.099 45.1852 309.589 44.7512 310.415 44.7512C311.311 44.7512 311.717 45.1992 311.717 46.2492V46.4312L310.233 46.6132C309.127 46.7672 308.455 46.9492 307.951 47.2432C307.391 47.5932 307.097 48.1532 307.097 48.8252C307.097 50.0712 308.049 50.8972 309.477 50.8972ZM310.023 49.7072C309.281 49.7072 308.833 49.3292 308.833 48.7412C308.833 48.1392 309.253 47.8032 310.177 47.6492L311.759 47.4112V47.8592C311.759 48.9792 311.059 49.7072 310.023 49.7072ZM314.043 44.9472H315.303V48.5592C315.303 49.9732 315.863 50.8552 317.543 50.8552C317.977 50.8552 318.285 50.8132 318.691 50.7292V49.3152C318.467 49.3712 318.285 49.3992 318.005 49.3992C317.305 49.3992 316.983 49.0492 316.983 48.2932V44.9472H318.691V43.7292H316.983V41.2932L315.303 41.9652V43.7292H314.043V44.9472ZM325.753 46.8792C325.753 44.7372 324.591 43.5612 322.561 43.5612C320.475 43.5612 319.215 44.9892 319.215 47.2992C319.215 49.5952 320.503 50.8972 322.645 50.8972C324.073 50.8972 325.179 50.2252 325.697 49.0072L324.409 48.4192C324.087 49.1752 323.499 49.5812 322.701 49.5812C321.595 49.5812 320.853 48.8252 320.839 47.6492H325.753V46.8792ZM324.101 46.5432H320.839C320.867 45.3812 321.469 44.6812 322.533 44.6812C323.527 44.6812 324.101 45.2832 324.101 46.4312V46.5432ZM332.922 43.7852C333.118 43.7852 333.3 43.8132 333.482 43.8552V42.5952C333.356 42.5672 333.23 42.5532 333.104 42.5532C332.096 42.5532 331.48 43.0712 331.256 43.8412C330.85 43.6592 330.346 43.5612 329.786 43.5612C327.994 43.5612 326.902 44.5272 326.902 45.9132C326.902 46.6412 327.21 47.2712 327.756 47.7052C327.084 47.9712 326.664 48.4612 326.664 49.1892C326.664 49.7492 326.93 50.1972 327.546 50.4492C326.79 50.7012 326.384 51.2052 326.384 51.8212C326.384 52.8152 327.266 53.6272 329.66 53.6272C332.194 53.6272 333.398 52.6892 333.398 51.2472C333.398 49.9452 332.558 49.2312 330.92 49.2312H329.1C328.316 49.2312 328.022 48.9652 328.022 48.5872C328.022 48.3352 328.162 48.1672 328.372 48.0552C328.778 48.2232 329.254 48.3072 329.786 48.3072C331.564 48.3072 332.656 47.2992 332.656 45.9132C332.656 45.2272 332.39 44.6532 331.914 44.2332C332.124 43.9392 332.46 43.7852 332.922 43.7852ZM329.786 47.2852C329.002 47.2852 328.498 46.7112 328.498 45.9132C328.498 45.1292 329.002 44.5832 329.786 44.5832C330.57 44.5832 331.074 45.1292 331.074 45.9272C331.074 46.7112 330.57 47.2852 329.786 47.2852ZM330.668 50.6732C331.48 50.6732 331.886 50.9672 331.886 51.5272C331.886 52.1012 331.368 52.5352 329.786 52.5352C328.568 52.5352 327.77 52.2552 327.77 51.5132C327.77 51.1632 327.938 50.8412 328.288 50.6312C328.456 50.6452 328.652 50.6592 328.848 50.6592L330.668 50.6732ZM337.182 50.8972C339.198 50.8972 340.612 49.5672 340.612 47.2152C340.612 44.8772 339.198 43.5612 337.182 43.5612C335.166 43.5612 333.752 44.8772 333.752 47.2152C333.752 49.5672 335.166 50.8972 337.182 50.8972ZM337.182 49.6232C336.104 49.6232 335.46 48.8112 335.46 47.2152C335.46 45.6192 336.104 44.8352 337.182 44.8352C338.26 44.8352 338.89 45.6192 338.89 47.2152C338.89 48.8112 338.26 49.6232 337.182 49.6232ZM343.627 45.4232V43.7292H342.059V50.7292H343.739V47.8032C343.739 47.0192 343.809 46.2212 344.369 45.6752C344.691 45.3672 345.153 45.1852 345.825 45.1852H346.049V43.5752C345.979 43.5612 345.923 43.5612 345.853 43.5612C344.719 43.5612 343.977 44.3172 343.627 45.4232ZM347.843 53.5432C349.341 53.5432 350.279 52.9132 350.909 51.1212L353.541 43.7292H351.791L350.405 48.3072C350.293 48.6712 350.223 48.9232 350.195 49.1332H350.167C350.125 48.8952 350.069 48.6292 349.957 48.3072L348.431 43.7292H346.583L349.313 50.6592L349.173 51.0792C348.921 51.8632 348.501 52.1992 347.703 52.1992C347.521 52.1992 347.353 52.1852 347.059 52.1572V53.4732C347.353 53.5292 347.633 53.5432 347.843 53.5432Z" fill="#232722"></path><path d="M396.246 50.9672C398.78 50.9672 400.068 49.6232 400.068 47.9152C400.068 46.1512 398.976 45.3952 397.338 45.0452L395.896 44.7372C394.804 44.4992 394.356 44.0792 394.356 43.2672C394.356 42.4272 395.084 41.9232 396.162 41.9232C397.478 41.9232 398.304 42.5812 398.626 43.7292L400.068 42.9732C399.634 41.3212 398.136 40.5512 396.246 40.5512C394.006 40.5512 392.606 41.6852 392.606 43.4072C392.606 45.1012 393.642 45.9412 395.21 46.2632L396.596 46.5572C397.688 46.7812 398.276 47.1172 398.276 48.0832C398.276 49.1192 397.324 49.5252 396.302 49.5252C394.762 49.5252 393.95 48.6292 393.614 47.5092L392.074 48.1812C392.48 49.8052 393.894 50.9672 396.246 50.9672ZM400.435 44.9472H401.695V48.5592C401.695 49.9732 402.255 50.8552 403.935 50.8552C404.369 50.8552 404.677 50.8132 405.083 50.7292V49.3152C404.859 49.3712 404.677 49.3992 404.397 49.3992C403.697 49.3992 403.375 49.0492 403.375 48.2932V44.9472H405.083V43.7292H403.375V41.2932L401.695 41.9652V43.7292H400.435V44.9472ZM408.123 50.8972C409.257 50.8972 410.139 50.3792 410.475 49.5252C410.489 49.9592 410.531 50.3792 410.587 50.7292H412.267C412.127 50.2392 412.057 49.5112 412.057 48.5592V46.4732C412.057 44.4432 411.133 43.5612 409.061 43.5612C407.255 43.5612 406.079 44.4852 405.967 45.9832H407.689C407.745 45.1852 408.235 44.7512 409.061 44.7512C409.957 44.7512 410.363 45.1992 410.363 46.2492V46.4312L408.879 46.6132C407.773 46.7672 407.101 46.9492 406.597 47.2432C406.037 47.5932 405.743 48.1532 405.743 48.8252C405.743 50.0712 406.695 50.8972 408.123 50.8972ZM408.669 49.7072C407.927 49.7072 407.479 49.3292 407.479 48.7412C407.479 48.1392 407.899 47.8032 408.823 47.6492L410.405 47.4112V47.8592C410.405 48.9792 409.705 49.7072 408.669 49.7072ZM412.689 44.9472H413.949V48.5592C413.949 49.9732 414.509 50.8552 416.189 50.8552C416.623 50.8552 416.931 50.8132 417.337 50.7292V49.3152C417.113 49.3712 416.931 49.3992 416.651 49.3992C415.951 49.3992 415.629 49.0492 415.629 48.2932V44.9472H417.337V43.7292H415.629V41.2932L413.949 41.9652V43.7292H412.689V44.9472ZM420.865 50.8972C421.873 50.8972 422.713 50.2952 423.049 49.4272V50.7292H424.645V43.7292H422.951V47.6072C422.951 48.7832 422.335 49.5532 421.411 49.5532C420.599 49.5532 420.179 48.9932 420.179 47.9712V43.7292H418.499V48.2232C418.499 49.8612 419.157 50.8972 420.865 50.8972ZM429.167 50.8972C430.987 50.8972 432.051 50.0572 432.051 48.6852C432.051 47.5232 431.477 46.7952 430.035 46.6132L428.859 46.4452C428.117 46.3612 427.795 46.0812 427.795 45.6052C427.795 45.0592 428.243 44.7792 429.041 44.7792C429.951 44.7792 430.581 45.2552 430.917 45.9692L432.079 45.3392C431.729 44.2472 430.595 43.5612 429.083 43.5612C427.305 43.5612 426.241 44.3872 426.241 45.6892C426.241 46.8232 426.913 47.5932 428.369 47.7752L429.433 47.9152C430.203 48.0132 430.497 48.2512 430.497 48.8112C430.497 49.3432 430.049 49.6652 429.209 49.6652C428.215 49.6652 427.515 49.2032 427.179 48.3072L425.933 48.8672C426.381 50.1832 427.557 50.8972 429.167 50.8972Z" fill="#232722"></path><rect opacity="0.4" x="294.619" y="87.8666" width="59.4885" height="27.6303" rx="5.35191" fill="#7991F9"></rect><path d="M318.8 98.8433V97.8157H313.148V106.935H314.368V102.774H318.581V101.746H314.368V98.8433H318.8ZM322.156 107.089C323.055 107.089 323.852 106.511 324.147 105.728V106.935H325.175V100.513H324.083V103.968C324.083 105.278 323.389 106.152 322.362 106.152C321.514 106.152 321.051 105.561 321.051 104.482V100.513H319.96V104.61C319.96 106.113 320.538 107.089 322.156 107.089ZM332.371 103.275C332.371 101.348 331.369 100.359 329.635 100.359C327.799 100.359 326.72 101.656 326.72 103.801C326.72 105.921 327.811 107.089 329.648 107.089C330.945 107.089 331.883 106.473 332.333 105.304L331.434 104.906C331.151 105.689 330.547 106.126 329.725 106.126C328.582 106.126 327.824 105.304 327.811 104.045H332.371V103.275ZM331.267 103.159H327.811C327.837 101.952 328.479 101.22 329.61 101.22C330.663 101.22 331.267 101.836 331.267 103.018V103.159ZM335.135 97.623H334.043V106.935H335.135V97.623Z" fill="#232722"></path><rect opacity="0.4" x="391.864" y="87.8665" width="78.4779" height="27.6303" rx="5.35191" fill="#BDDBB3"></rect><path d="M411.219 106.935H412.477L409.022 97.8157H407.815L404.36 106.935H405.618L406.556 104.302H410.281L411.219 106.935ZM406.916 103.275L408.187 99.7167C408.264 99.5111 408.341 99.2928 408.406 99.0231H408.431C408.496 99.2928 408.573 99.5111 408.65 99.7167L409.921 103.275H406.916ZM416.01 107.089C417.448 107.089 418.412 106.242 418.643 104.777L417.602 104.61C417.435 105.612 416.896 106.139 416.022 106.139C414.879 106.139 414.211 105.253 414.211 103.711C414.211 102.209 414.879 101.309 415.984 101.309C416.857 101.309 417.423 101.849 417.538 102.825L418.656 102.697C418.489 101.219 417.512 100.359 416.01 100.359C414.186 100.359 413.055 101.631 413.055 103.724C413.055 105.779 414.211 107.089 416.01 107.089ZM422.578 107.089C424.016 107.089 424.98 106.242 425.211 104.777L424.171 104.61C424.004 105.612 423.464 106.139 422.591 106.139C421.448 106.139 420.78 105.253 420.78 103.711C420.78 102.209 421.448 101.309 422.552 101.309C423.426 101.309 423.991 101.849 424.106 102.825L425.224 102.697C425.057 101.219 424.081 100.359 422.578 100.359C420.754 100.359 419.624 101.631 419.624 103.724C419.624 105.779 420.78 107.089 422.578 107.089ZM431.844 103.275C431.844 101.348 430.842 100.359 429.108 100.359C427.271 100.359 426.192 101.656 426.192 103.801C426.192 105.921 427.284 107.089 429.121 107.089C430.418 107.089 431.355 106.473 431.805 105.304L430.906 104.906C430.623 105.689 430.02 106.126 429.198 106.126C428.054 106.126 427.297 105.304 427.284 104.045H431.844V103.275ZM430.739 103.159H427.284C427.309 101.952 427.952 101.219 429.082 101.219C430.135 101.219 430.739 101.836 430.739 103.018V103.159ZM433.451 109.44H434.543V105.921C434.826 106.55 435.519 107.089 436.508 107.089C438.062 107.089 439.167 105.779 439.167 103.724C439.167 101.695 438.127 100.359 436.572 100.359C435.635 100.359 434.89 100.821 434.479 101.708V100.513H433.451V109.44ZM436.251 106.126C435.185 106.126 434.517 105.253 434.517 103.865V103.557C434.517 102.17 435.211 101.322 436.29 101.322C437.369 101.322 438.011 102.209 438.011 103.724C438.011 105.227 437.343 106.126 436.251 106.126ZM439.558 101.412H440.752V105.009C440.752 106.203 441.112 107.051 442.499 107.051C442.91 107.051 443.167 107.012 443.45 106.935V105.933C443.231 105.985 443.064 106.023 442.782 106.023C442.127 106.023 441.844 105.702 441.844 104.97V101.412H443.45V100.513H441.844V98.368L440.752 98.8304V100.513H439.558V101.412ZM449.679 103.275C449.679 101.348 448.678 100.359 446.944 100.359C445.107 100.359 444.028 101.656 444.028 103.801C444.028 105.921 445.12 107.089 446.956 107.089C448.254 107.089 449.191 106.473 449.641 105.304L448.742 104.906C448.459 105.689 447.856 106.126 447.033 106.126C445.89 106.126 445.132 105.304 445.12 104.045H449.679V103.275ZM448.575 103.159H445.12C445.145 101.952 445.788 101.219 446.918 101.219C447.971 101.219 448.575 101.836 448.575 103.018V103.159ZM453.316 107.089C454.318 107.089 455.012 106.601 455.397 105.741V106.935H456.425V97.623H455.333V101.464C454.922 100.706 454.293 100.359 453.445 100.359C451.839 100.359 450.709 101.746 450.709 103.724C450.709 105.741 451.762 107.089 453.316 107.089ZM453.612 106.126C452.52 106.126 451.865 105.227 451.865 103.724C451.865 102.209 452.52 101.322 453.612 101.322C454.691 101.322 455.359 102.183 455.359 103.583V103.878C455.359 105.253 454.678 106.126 453.612 106.126Z" fill="#232722"></path><path d="M119.25 104.382C119.25 102.716 118.326 101.848 116.24 101.372L115.638 101.232V98.8798C116.464 99.0478 117.08 99.5238 117.514 100.294L119.026 99.0618C118.242 97.9838 117.108 97.3678 115.638 97.2558V95.9818H114.714V97.2558C112.656 97.3818 111.382 98.3898 111.382 99.9718C111.382 101.428 112.32 102.38 114.182 102.8L114.714 102.926V105.698C113.762 105.544 113.048 105.026 112.53 104.06L110.836 105.222C111.494 106.496 112.88 107.28 114.714 107.392V108.68H115.638V107.392C117.85 107.238 119.25 106.09 119.25 104.382ZM113.384 99.8738C113.384 99.2438 113.888 98.8938 114.714 98.8378V101.022C113.72 100.756 113.384 100.434 113.384 99.8738ZM115.638 105.726V103.136C116.744 103.416 117.178 103.752 117.178 104.494C117.178 105.208 116.59 105.642 115.638 105.726ZM120.781 107.182H123.245V106.832C123.245 103.78 124.379 101.33 126.437 99.1878V97.4518H119.451V99.3278H124.197C122.083 101.554 120.781 104.228 120.781 107.014V107.182ZM130.337 97.2418C128.055 97.2418 126.641 98.6138 126.641 100.574C126.641 102.492 127.929 103.724 129.917 103.724C130.827 103.724 131.639 103.402 132.101 102.688C132.087 104.536 131.527 105.642 130.393 105.642C129.581 105.642 129.091 105.166 128.923 104.41L126.795 104.788C127.075 106.482 128.349 107.392 130.281 107.392C133.011 107.392 134.257 105.39 134.257 102.156C134.257 98.9078 132.871 97.2418 130.337 97.2418ZM130.337 102.086C129.427 102.086 128.797 101.428 128.797 100.504C128.797 99.5378 129.413 98.8938 130.365 98.8938C131.527 98.8938 132.031 99.7758 132.087 100.812C131.807 101.582 131.093 102.086 130.337 102.086ZM137.502 104.886H135.108V107.182H137.502V104.886ZM142.236 107.392C144.546 107.392 146.03 106.258 146.03 104.466C146.03 103.15 145.26 102.352 143.818 102.142C144.994 101.876 145.764 101.008 145.764 99.9158C145.764 98.2218 144.504 97.2418 142.264 97.2418C139.954 97.2418 138.498 98.4598 138.498 100.364L140.724 100.658C140.724 99.5798 141.242 98.9498 142.152 98.9498C142.978 98.9498 143.44 99.3978 143.44 100.182C143.44 101.008 142.936 101.47 141.956 101.47H141.452V103.01H141.97C143.118 103.01 143.65 103.458 143.65 104.312C143.65 105.166 143.174 105.656 142.25 105.656C141.298 105.656 140.696 105.04 140.682 104.018L138.4 104.228C138.428 106.174 139.898 107.392 142.236 107.392ZM147.49 107.182H149.954V106.832C149.954 103.78 151.088 101.33 153.146 99.1878V97.4518H146.16V99.3278H150.906C148.792 101.554 147.49 104.228 147.49 107.014V107.182Z" fill="#232722"></path><path d="M201.973 107.42C204.367 107.42 205.571 105.936 205.949 104.06L204.661 103.836C204.381 105.32 203.387 106.258 201.973 106.258C199.943 106.258 198.893 104.494 198.893 102.17C198.893 99.7618 199.999 98.1378 201.945 98.1378C203.485 98.1378 204.395 99.1318 204.591 100.63L205.949 100.49C205.697 98.4318 204.437 97.0038 202.015 97.0038C199.061 97.0038 197.493 99.1318 197.493 102.184C197.493 105.068 198.893 107.42 201.973 107.42ZM207.704 107.182H208.894V103.528C208.894 101.946 209.58 101.036 210.784 101.036C211.792 101.036 212.31 101.68 212.31 102.912V107.182H213.5V102.828C213.5 100.966 212.702 99.9858 211.19 99.9858C210.098 99.9858 209.314 100.504 208.894 101.498V97.0318H207.704V107.182ZM221.13 103.192C221.13 101.092 220.038 100.014 218.148 100.014C216.146 100.014 214.97 101.428 214.97 103.766C214.97 106.076 216.16 107.35 218.162 107.35C219.576 107.35 220.598 106.678 221.088 105.404L220.108 104.97C219.8 105.824 219.142 106.3 218.246 106.3C217 106.3 216.174 105.404 216.16 104.032H221.13V103.192ZM219.926 103.066H216.16C216.188 101.75 216.888 100.952 218.12 100.952C219.268 100.952 219.926 101.624 219.926 102.912V103.066ZM224.091 107.182H225.365L227.899 100.182H226.611L225.043 104.9C224.917 105.278 224.819 105.642 224.749 105.964H224.707C224.637 105.642 224.539 105.278 224.413 104.9L222.845 100.182H221.557L224.091 107.182ZM230.19 101.778V100.182H229.084V107.182H230.274V104.186C230.274 103.346 230.302 102.408 230.974 101.736C231.31 101.4 231.786 101.19 232.514 101.19H232.57V100.028C232.486 100.014 232.402 100.014 232.318 100.014C231.254 100.014 230.526 100.798 230.19 101.778ZM236.332 107.35C238.306 107.35 239.594 105.964 239.594 103.682C239.594 101.4 238.306 100.014 236.332 100.014C234.358 100.014 233.07 101.4 233.07 103.682C233.07 105.964 234.358 107.35 236.332 107.35ZM236.332 106.314C235.072 106.314 234.33 105.418 234.33 103.682C234.33 101.946 235.072 101.05 236.332 101.05C237.592 101.05 238.334 101.946 238.334 103.682C238.334 105.418 237.592 106.314 236.332 106.314ZM241.27 107.182H242.46V103.528C242.46 101.974 243.174 101.036 244.336 101.036C245.358 101.036 245.876 101.666 245.876 102.898V107.182H247.066V102.828C247.066 100.952 246.268 99.9858 244.728 99.9858C243.622 99.9858 242.852 100.504 242.39 101.568V100.182H241.27V107.182Z" fill="#232722"></path><path d="M43.1896 104.578V97.2418H41.8596V104.48C41.8596 105.866 41.1316 106.16 40.3196 106.16C40.0256 106.16 39.5356 106.16 39.1436 106.09V107.322C39.4376 107.406 39.8856 107.42 40.3056 107.42C41.7896 107.42 43.1896 106.804 43.1896 104.578ZM47.6074 107.35C48.5874 107.35 49.4554 106.72 49.7774 105.866V107.182H50.8974V100.182H49.7074V103.948C49.7074 105.376 48.9514 106.328 47.8314 106.328C46.9074 106.328 46.4034 105.684 46.4034 104.508V100.182H45.2134V104.648C45.2134 106.286 45.8434 107.35 47.6074 107.35ZM53.2114 107.182H54.4014V103.528C54.4014 101.974 55.1154 101.036 56.2774 101.036C57.2994 101.036 57.8174 101.666 57.8174 102.898V107.182H59.0074V102.828C59.0074 100.952 58.2094 99.9858 56.6694 99.9858C55.5634 99.9858 54.7934 100.504 54.3314 101.568V100.182H53.2114V107.182ZM65.8515 107.182H67.1115V97.4518H66.0475C65.8095 98.4738 65.0115 99.0338 64.0735 99.0338H63.7655V100.168H64.2695C64.8015 100.168 65.5575 99.9578 65.8515 99.5518V107.182ZM72.3833 97.2418C70.4093 97.2418 69.1353 98.5998 69.1353 100.434C69.1353 102.478 70.4793 103.556 72.2573 103.556C73.2793 103.556 74.1193 103.15 74.6093 102.31C74.5813 104.746 73.9933 106.342 72.4253 106.342C71.2213 106.342 70.7033 105.628 70.5073 104.564L69.2473 104.844C69.5553 106.482 70.6333 107.392 72.4113 107.392C74.9033 107.392 75.8693 105.096 75.8693 102.128C75.8693 98.9218 74.7493 97.2418 72.3833 97.2418ZM72.3833 102.506C71.2213 102.506 70.3953 101.722 70.3953 100.42C70.3953 99.1458 71.1793 98.2918 72.3693 98.2918C73.9233 98.2918 74.4553 99.5098 74.5813 100.672C74.3573 101.708 73.4333 102.506 72.3833 102.506Z" fill="#232722"></path><line opacity="0.1" x1="38.8635" y1="130.259" x2="470.342" y2="130.259" stroke="black" stroke-width="0.76447"></line><rect x="294.619" y="146.125" width="59.4885" height="27.6303" rx="5.35191" fill="#BEE7F3"></rect><path d="M315.953 165.194H317.327L314.989 161.238C316.518 160.891 317.045 159.774 317.045 158.746C317.045 157.41 316.415 156.074 314.026 156.074H310.648V165.194H311.868V161.405H313.718L315.953 165.194ZM311.868 157.102H313.885C315.285 157.102 315.76 157.808 315.76 158.746C315.76 159.658 315.298 160.377 313.885 160.377H311.868V157.102ZM323.692 161.533C323.692 159.607 322.69 158.617 320.956 158.617C319.119 158.617 318.04 159.915 318.04 162.06C318.04 164.179 319.132 165.348 320.969 165.348C322.266 165.348 323.204 164.732 323.653 163.563L322.754 163.164C322.471 163.948 321.868 164.385 321.046 164.385C319.903 164.385 319.145 163.563 319.132 162.304H323.692V161.533ZM322.587 161.418H319.132C319.158 160.21 319.8 159.478 320.93 159.478C321.983 159.478 322.587 160.095 322.587 161.276V161.418ZM324.148 159.671H325.342V163.267C325.342 164.462 325.702 165.31 327.089 165.31C327.5 165.31 327.757 165.271 328.04 165.194V164.192C327.821 164.243 327.654 164.282 327.372 164.282C326.717 164.282 326.434 163.961 326.434 163.229V159.671H328.04V158.772H326.434V156.627L325.342 157.089V158.772H324.148V159.671ZM330.914 165.348C331.967 165.348 332.776 164.847 333.072 164.025C333.085 164.436 333.123 164.86 333.175 165.194H334.318C334.164 164.693 334.099 164.012 334.099 163.023V161.289C334.099 159.414 333.329 158.617 331.569 158.617C330.066 158.617 329.039 159.478 328.949 160.788H330.118C330.169 159.979 330.708 159.517 331.582 159.517C332.571 159.517 332.995 159.992 332.995 161.174V161.276L331.8 161.418C330.747 161.546 330.13 161.7 329.642 161.944C329.064 162.265 328.743 162.818 328.743 163.46C328.743 164.603 329.604 165.348 330.914 165.348ZM331.158 164.449C330.375 164.449 329.899 164.064 329.899 163.434C329.899 162.805 330.31 162.471 331.261 162.33L333.008 162.073V162.394C333.008 163.64 332.275 164.449 331.158 164.449ZM335.976 157.577H337.221V156.203H335.976V157.577ZM336.053 165.194H337.144V158.772H336.053V165.194ZM340.415 155.882H339.323V165.194H340.415V155.882Z" fill="#232722"></path><rect opacity="0.4" x="391.864" y="146.125" width="78.4779" height="27.6303" rx="5.35191" fill="#F1A99B"></rect><path d="M406.413 165.194H409.381C412.039 165.194 413.735 163.28 413.735 160.621C413.735 157.911 412.027 156.074 409.406 156.074H406.413V165.194ZM407.634 164.166V157.102H409.381C411.346 157.102 412.438 158.592 412.438 160.621C412.438 162.574 411.32 164.166 409.355 164.166H407.634ZM420.348 161.533C420.348 159.607 419.346 158.618 417.612 158.618C415.775 158.618 414.696 159.915 414.696 162.06C414.696 164.179 415.788 165.348 417.625 165.348C418.922 165.348 419.86 164.732 420.309 163.563L419.41 163.164C419.128 163.948 418.524 164.385 417.702 164.385C416.559 164.385 415.801 163.563 415.788 162.304H420.348V161.533ZM419.243 161.418H415.788C415.814 160.21 416.456 159.478 417.586 159.478C418.639 159.478 419.243 160.095 419.243 161.276V161.418ZM424.332 165.348C425.77 165.348 426.734 164.5 426.965 163.036L425.924 162.869C425.757 163.871 425.218 164.398 424.344 164.398C423.201 164.398 422.533 163.511 422.533 161.97C422.533 160.467 423.201 159.568 424.306 159.568C425.179 159.568 425.745 160.107 425.86 161.084L426.978 160.955C426.811 159.478 425.834 158.618 424.332 158.618C422.508 158.618 421.377 159.889 421.377 161.983C421.377 164.038 422.533 165.348 424.332 165.348ZM429.68 155.882H428.588V165.194H429.68V155.882ZM431.791 157.577H433.037V156.203H431.791V157.577ZM431.868 165.194H432.96V158.772H431.868V165.194ZM435.075 165.194H436.167V161.842C436.167 160.416 436.822 159.555 437.888 159.555C438.826 159.555 439.301 160.133 439.301 161.263V165.194H440.393V161.199C440.393 159.478 439.66 158.592 438.248 158.592C437.233 158.592 436.526 159.067 436.102 160.043V158.772H435.075V165.194ZM447.394 161.533C447.394 159.607 446.392 158.618 444.658 158.618C442.821 158.618 441.743 159.915 441.743 162.06C441.743 164.179 442.834 165.348 444.671 165.348C445.968 165.348 446.906 164.732 447.356 163.563L446.457 163.164C446.174 163.948 445.57 164.385 444.748 164.385C443.605 164.385 442.847 163.563 442.834 162.304H447.394V161.533ZM446.29 161.418H442.834C442.86 160.21 443.502 159.478 444.633 159.478C445.686 159.478 446.29 160.095 446.29 161.276V161.418ZM451.031 165.348C452.033 165.348 452.727 164.86 453.112 163.999V165.194H454.14V155.882H453.048V159.722C452.637 158.964 452.007 158.618 451.16 158.618C449.554 158.618 448.424 160.005 448.424 161.983C448.424 163.999 449.477 165.348 451.031 165.348ZM451.327 164.385C450.235 164.385 449.58 163.486 449.58 161.983C449.58 160.467 450.235 159.581 451.327 159.581C452.406 159.581 453.073 160.441 453.073 161.842V162.137C453.073 163.511 452.393 164.385 451.327 164.385Z" fill="#232722"></path><path d="M119.25 162.64C119.25 160.974 118.326 160.106 116.24 159.63L115.638 159.49V157.138C116.464 157.306 117.08 157.782 117.514 158.552L119.026 157.32C118.242 156.242 117.108 155.626 115.638 155.514V154.24H114.714V155.514C112.656 155.64 111.382 156.648 111.382 158.23C111.382 159.686 112.32 160.638 114.182 161.058L114.714 161.184V163.956C113.762 163.802 113.048 163.284 112.53 162.318L110.836 163.48C111.494 164.754 112.88 165.538 114.714 165.65V166.938H115.638V165.65C117.85 165.496 119.25 164.348 119.25 162.64ZM113.384 158.132C113.384 157.502 113.888 157.152 114.714 157.096V159.28C113.72 159.014 113.384 158.692 113.384 158.132ZM115.638 163.984V161.394C116.744 161.674 117.178 162.01 117.178 162.752C117.178 163.466 116.59 163.9 115.638 163.984ZM124.361 158.874C123.255 158.874 122.415 159.28 121.939 160.022C121.995 158.244 122.653 157.194 123.759 157.194C124.473 157.194 124.921 157.6 125.089 158.384L127.217 158.048C126.937 156.368 125.775 155.5 123.801 155.5C121.295 155.5 119.769 157.474 119.769 160.75C119.769 163.844 121.253 165.65 123.773 165.65C125.887 165.65 127.371 164.208 127.371 162.136C127.371 160.12 126.223 158.874 124.361 158.874ZM123.717 163.942C122.737 163.942 122.093 163.158 121.967 161.856C122.247 161.016 122.891 160.512 123.689 160.512C124.613 160.512 125.215 161.198 125.215 162.234C125.215 163.298 124.655 163.942 123.717 163.942ZM127.912 165.44H135.248V163.648H130.992C131.972 163.102 132.77 162.556 133.414 161.996C134.59 160.946 135.164 159.84 135.164 158.538C135.164 156.606 133.848 155.5 131.608 155.5C129.326 155.5 127.898 156.676 127.898 158.496C127.898 158.734 127.926 159 127.982 159.252L130.278 159.476C130.222 159.182 130.18 158.916 130.18 158.678C130.18 157.81 130.67 157.278 131.496 157.278C132.308 157.278 132.756 157.782 132.756 158.706C132.756 159.658 132.378 160.386 131.426 161.268C130.572 162.066 129.368 162.906 127.912 163.788V165.44ZM138.883 163.144H136.489V165.44H138.883V163.144ZM147.679 163.298V161.646H146.223V155.71H143.731L139.517 161.772V163.298H143.997V165.44H146.223V163.298H147.679ZM144.081 158.846V161.646H141.491C141.687 161.436 141.855 161.212 142.135 160.806L143.521 158.762C143.787 158.356 143.955 158.09 144.081 157.768H144.109C144.081 158.118 144.081 158.342 144.081 158.846ZM156.492 163.298V161.646H155.036V155.71H152.544L148.33 161.772V163.298H152.81V165.44H155.036V163.298H156.492ZM152.894 158.846V161.646H150.304C150.5 161.436 150.668 161.212 150.948 160.806L152.334 158.762C152.6 158.356 152.768 158.09 152.894 157.768H152.922C152.894 158.118 152.894 158.342 152.894 158.846Z" fill="#232722"></path><path d="M198.263 165.44H199.481V157.768C199.481 157.362 199.467 157.026 199.425 156.704H199.481C199.509 156.9 199.649 157.502 199.775 157.838L202.407 165.44H203.695L206.327 157.838C206.453 157.502 206.593 156.9 206.621 156.704H206.677C206.635 157.026 206.621 157.362 206.621 157.768V165.44H207.839V155.5H205.949L203.317 163.144C203.149 163.634 203.121 163.718 203.065 164.082H203.037C202.981 163.718 202.953 163.634 202.785 163.144L200.153 155.5H198.263V165.44ZM212.023 165.608C213.171 165.608 214.053 165.062 214.375 164.166C214.389 164.614 214.431 165.076 214.487 165.44H215.733C215.565 164.894 215.495 164.152 215.495 163.074V161.184C215.495 159.14 214.655 158.272 212.737 158.272C211.099 158.272 209.979 159.21 209.881 160.638H211.155C211.211 159.756 211.799 159.252 212.751 159.252C213.829 159.252 214.291 159.77 214.291 161.058V161.17L212.989 161.324C211.841 161.464 211.169 161.632 210.637 161.898C210.007 162.248 209.657 162.85 209.657 163.55C209.657 164.796 210.595 165.608 212.023 165.608ZM212.289 164.628C211.435 164.628 210.917 164.208 210.917 163.522C210.917 162.836 211.365 162.472 212.401 162.318L214.305 162.038V162.388C214.305 163.746 213.507 164.628 212.289 164.628ZM220.145 165.608C221.713 165.608 222.763 164.684 223.015 163.088L221.881 162.906C221.699 163.998 221.111 164.572 220.159 164.572C218.913 164.572 218.185 163.606 218.185 161.926C218.185 160.288 218.913 159.308 220.117 159.308C221.069 159.308 221.685 159.896 221.811 160.96L223.029 160.82C222.847 159.21 221.783 158.272 220.145 158.272C218.157 158.272 216.925 159.658 216.925 161.94C216.925 164.18 218.185 165.608 220.145 165.608ZM224.537 168.254C225.713 168.254 226.553 167.666 227.197 165.888L229.927 158.44H228.639L227.015 163.312C226.903 163.662 226.819 163.942 226.777 164.138H226.749C226.707 163.942 226.637 163.662 226.511 163.312L224.719 158.44H223.389L226.175 165.356L225.993 165.874C225.671 166.798 225.237 167.176 224.397 167.176C224.243 167.176 224.075 167.162 223.893 167.148V168.198C224.117 168.24 224.327 168.254 224.537 168.254ZM231.917 159.112C232.883 158.706 233.177 158.174 233.177 157.054V155.5H231.539V157.152H232.435V157.194C232.435 157.88 232.295 158.188 231.595 158.496L231.917 159.112ZM236.968 165.608C238.676 165.608 239.656 164.796 239.656 163.466C239.656 162.36 239.11 161.632 237.724 161.478L236.604 161.352C235.736 161.254 235.344 160.89 235.344 160.288C235.344 159.616 235.89 159.238 236.814 159.238C237.766 159.238 238.34 159.826 238.494 160.666L239.67 160.4C239.516 159.112 238.438 158.272 236.842 158.272C235.19 158.272 234.182 159.07 234.182 160.344C234.182 161.422 234.84 162.206 236.226 162.36L237.36 162.486C238.116 162.57 238.48 162.878 238.48 163.578C238.48 164.236 237.962 164.628 237.024 164.628C235.988 164.628 235.33 164.096 235.148 163.074L233.944 163.284C234.196 164.782 235.302 165.608 236.968 165.608Z" fill="#232722"></path><path d="M43.1896 162.836V155.5H41.8596V162.738C41.8596 164.124 41.1316 164.418 40.3196 164.418C40.0256 164.418 39.5356 164.418 39.1436 164.348V165.58C39.4376 165.664 39.8856 165.678 40.3056 165.678C41.7896 165.678 43.1896 165.062 43.1896 162.836ZM47.6074 165.608C48.5874 165.608 49.4554 164.978 49.7774 164.124V165.44H50.8974V158.44H49.7074V162.206C49.7074 163.634 48.9514 164.586 47.8314 164.586C46.9074 164.586 46.4034 163.942 46.4034 162.766V158.44H45.2134V162.906C45.2134 164.544 45.8434 165.608 47.6074 165.608ZM53.2114 165.44H54.4014V161.786C54.4014 160.232 55.1154 159.294 56.2774 159.294C57.2994 159.294 57.8174 159.924 57.8174 161.156V165.44H59.0074V161.086C59.0074 159.21 58.2094 158.244 56.6694 158.244C55.5634 158.244 54.7934 158.762 54.3314 159.826V158.44H53.2114V165.44ZM65.8515 165.44H67.1115V155.71H66.0475C65.8095 156.732 65.0115 157.292 64.0735 157.292H63.7655V158.426H64.2695C64.8015 158.426 65.5575 158.216 65.8515 157.81V165.44ZM72.3833 155.5C70.4093 155.5 69.1353 156.858 69.1353 158.692C69.1353 160.736 70.4793 161.814 72.2573 161.814C73.2793 161.814 74.1193 161.408 74.6093 160.568C74.5813 163.004 73.9933 164.6 72.4253 164.6C71.2213 164.6 70.7033 163.886 70.5073 162.822L69.2473 163.102C69.5553 164.74 70.6333 165.65 72.4113 165.65C74.9033 165.65 75.8693 163.354 75.8693 160.386C75.8693 157.18 74.7493 155.5 72.3833 155.5ZM72.3833 160.764C71.2213 160.764 70.3953 159.98 70.3953 158.678C70.3953 157.404 71.1793 156.55 72.3693 156.55C73.9233 156.55 74.4553 157.768 74.5813 158.93C74.3573 159.966 73.4333 160.764 72.3833 160.764Z" fill="#232722"></path><defs><filter id="filter0_d_1_1146" x="0" y="0" width="565.256" height="274.008" color-interpolation-filters="sRGB"><feFlood flood-opacity="0" result="BackgroundImageFix"></feFlood><feColorMatrix in="SourceAlpha" type="matrix" values="0 0 0 0 0 0 0 0 0 0 0 0 0 0 0 0 0 0 127 0" result="hardAlpha"></feColorMatrix><feOffset dy="4"></feOffset><feGaussianBlur stdDeviation="6.5"></feGaussianBlur><feColorMatrix type="matrix" values="0 0 0 0 0 0 0 0 0 0 0 0 0 0 0 0 0 0 0.26 0"></feColorMatrix><feBlend mode="normal" in2="BackgroundImageFix" result="effect1_dropShadow_1_1146"></feBlend><feBlend mode="normal" in="SourceGraphic" in2="effect1_dropShadow_1_1146" result="shape"></feBlend></filter></defs></svg> 